<?xml version="1.0" encoding="UTF-8"?>
<svg id="a" data-name="Layer 1" xmlns="http://www.w3.org/2000/svg" viewBox="0 0 1080 1080">
  <g>
    <g>
      <g>
        <path d="m320.60386,691.72301c0,.40901-.29174.70362-.70362.70362h-4.91961c-.35181,0-.70362-.2946-.70362-.70362v-27.77007l-10.84031,18.21973c-.29174.52628-.58635.70362-1.1727.70362h-3.68971c-.64355,0-.87809-.17733-1.1727-.70362l-11.07199-18.21973v27.77007c0,.40901-.2946.70362-.70362.70362h-4.92247c-.35181,0-.70362-.2946-.70362-.70362v-38.43305c0-.41187.35181-.76368.70362-.76368h5.21422c.58635,0,.93816.06007,1.28997.76368l13.06558,22.02957,13.06558-22.02957c.40901-.70362.76082-.76368,1.34717-.76368h5.21422c.41187,0,.70362.35181.70362.76368v38.43305Z" fill="#8c4673"/>
        <path d="m341.8011,652.52628c.35181,0,.70362.35181.70362.76368v38.43305c0,.40901-.35181.70362-.70362.70362h-5.15701c-.35181,0-.70362-.2946-.70362-.70362v-38.43305c0-.41187.35181-.76368.70362-.76368h5.15701Z" fill="#8c4673"/>
        <path d="m363.71053,652.52628c.35181,0,.70362.35181.70362.76368v33.3361h18.68881c.41187,0,.70362.35181.70362.70362v4.39333c0,.40901-.29174.70362-.70362.70362h-24.54944c-.35181,0-.70362-.2946-.70362-.70362v-38.43305c0-.41187.35181-.76368.70362-.76368h5.15701Z" fill="#8c4673"/>
        <path d="m402.25513,652.52628c.35181,0,.70362.35181.70362.76368v33.3361h18.68881c.41187,0,.70362.35181.70362.70362v4.39333c0,.40901-.29174.70362-.70362.70362h-24.54944c-.35181,0-.70362-.2946-.70362-.70362v-38.43305c0-.41187.35181-.76368.70362-.76368h5.15701Z" fill="#8c4673"/>
        <path d="m440.79972,652.52628c.35181,0,.70362.35181.70362.76368v38.43305c0,.40901-.35181.70362-.70362.70362h-5.15701c-.35181,0-.70362-.2946-.70362-.70362v-38.43305c0-.41187.35181-.76368.70362-.76368h5.15701Z" fill="#8c4673"/>
        <path d="m481.80413,691.66294c-.17733.52914-.52914.76368-1.1727.76368h-5.03974c-.46908,0-.64355-.23454-.64355-.52914,0-.17447.0572-.34895.11727-.58349l14.41275-38.20137c.17733-.52628.52628-.76082,1.11263-.76082h5.39155c.64355,0,.93816.23454,1.1727.76082l14.23541,38.20137c.06007.17447.17733.40901.17733.58349,0,.2946-.17733.52914-.70362.52914h-5.15701c-.64355,0-.99536-.23454-1.16984-.76368l-2.98895-8.20031h-16.69808l-3.04616,8.20031Zm11.4238-31.34251l-6.73873,17.87078h13.41739l-6.67866-17.87078Z" fill="#8c4673"/>
        <path d="m545.42159,677.13292l9.78488,14.0638c.35181.58635.46908,1.2299-.35181,1.2299h-5.6833c-.64355,0-1.05543-.11727-1.40724-.76368l-9.43307-13.94081h-8.78666v14.00088c0,.40901-.35181.70362-.70362.70362h-5.15701c-.35181,0-.70362-.2946-.70362-.70362v-38.43305c0-.41187.35181-.76368.70362-.76368h16.46354c3.86704,0,7.26501.58635,9.90215,2.46267,2.92889,2.108,4.68793,5.62323,4.68793,10.13669,0,4.03866-1.58171,7.32221-4.57066,9.60469-1.52165,1.23276-3.04616,1.93352-4.74514,2.4026Zm-15.87719-19.04062v14.12101h9.49028c2.51987,0,4.5106-.23454,6.15238-1.2299,1.69898-.99536,2.87168-2.87168,2.87168-5.80057,0-2.87168-1.05543-4.748-2.75441-5.80057-1.58171-1.05543-3.5753-1.28997-5.74336-1.28997h-10.01656Z" fill="#8c4673"/>
        <path d="m566.62168,672.44785c0-11.4238,9.37587-20.44786,21.09427-20.44786,5.62323,0,9.37301,1.46444,12.12742,2.98895.46908.23454.58635.64355.35181.99536l-2.05079,4.27606c-.17733.46908-.58635.46908-.93816.2946-2.45981-1.28997-5.38869-2.63714-9.66761-2.63714-7.61682,0-14.11814,6.44412-14.11814,14.53002,0,8.67225,6.38406,14.64729,14.17821,14.64729,4.21885,0,7.38228-1.28997,9.84209-2.69721.40901-.23454.70362-.17447.93816.23454l2.05079,4.39619c.17447.40901.11727.70076-.35181.9353-3.04616,1.64178-6.79593,3.04902-12.53929,3.04902-12.36196,0-20.91694-8.02583-20.91694-20.56513Z" fill="#8c4673"/>
        <path d="m647.17462,652.52628c.40901,0,.70362.35181.70362.76368v38.43305c0,.40901-.2946.70362-.70362.70362h-5.09695c-.41187,0-.76082-.2946-.76082-.70362v-16.40348h-21.03421v16.40348c0,.40901-.35181.70362-.70362.70362h-5.15701c-.35181,0-.70362-.2946-.70362-.70362v-38.43305c0-.41187.35181-.76368.70362-.76368h5.15701c.35181,0,.70362.35181.70362.76368v16.16894h21.03421v-16.16894c0-.41187.34895-.76368.76082-.76368h5.09695Z" fill="#8c4673"/>
        <path d="m669.07548,652.52628c.35181,0,.70362.35181.70362.76368v38.43305c0,.40901-.35181.70362-.70362.70362h-5.15701c-.35181,0-.70362-.2946-.70362-.70362v-38.43305c0-.41187.35181-.76368.70362-.76368h5.15701Z" fill="#8c4673"/>
        <path d="m703.81596,691.84028c-.23454.58635-.52628.76082-1.1727.76082h-5.38869c-.58635,0-.88095-.17447-1.11549-.76082l-14.93903-38.25857c-.23454-.58635-.11727-1.05543.58635-1.05543h5.38869c.64641,0,.99822.2946,1.1727.82089l11.60113,31.05077h.11727l11.77561-31.05077c.23454-.52628.58635-.82089,1.1727-.82089h5.44876c.52628,0,.76082.40901.58635,1.05543l-15.23364,38.25857Z" fill="#8c4673"/>
        <path d="m758.99857,652.52628c.40901,0,.70362.35181.70362.76368v4.33612c0,.40615-.2946.70076-.70362.70076h-22.02957v11.19212h18.98341c.40901,0,.70076.29174.70076.70362v4.39333c0,.34895-.29174.70362-.70076.70362h-18.98341v11.30653h22.02957c.40901,0,.70362.35181.70362.70362v4.39333c0,.40901-.2946.70362-.70362.70362h-27.8902c-.35181,0-.70362-.2946-.70362-.70362v-38.43305c0-.41187.35181-.76368.70362-.76368h27.8902Z" fill="#8c4673"/>
        <path d="m771.34909,689.2632c-.40901-.23454-.52628-.58635-.29174-.99822l2.05079-4.33326c.17447-.35181.46908-.52914.93816-.23454,2.57708,1.58171,6.09231,3.69257,11.07199,3.69257,2.46267,0,4.33612-.58921,5.56603-1.52451,1.52451-1.11263,2.16806-2.75441,2.16806-4.5106,0-2.69721-2.16806-4.22171-5.03974-5.33149-3.3379-1.35003-7.26501-1.99359-11.01478-4.10158-3.22063-1.81911-5.50596-4.33612-5.50596-8.84958,0-3.2807,1.28997-6.09231,3.80698-8.02583,2.46267-1.93352,6.09517-3.04616,10.89751-3.04616,5.44876,0,9.55034,1.46444,12.18748,2.92889.41187.23454.46908.58635.2946.99536l-2.05079,4.27606c-.23454.41187-.58635.52914-.99822.2946-2.81162-1.63892-6.26679-2.81162-9.78202-2.81162-2.63714,0-4.57066.58349-5.74336,1.58171-1.11263.87809-1.69898,2.05079-1.69898,3.51524,0,2.57708,2.16806,3.92425,5.44876,5.03974,3.74977,1.34431,7.96863,1.99073,11.42666,4.21599,2.69435,1.69898,4.91961,4.45339,4.91961,8.78952,0,3.92711-1.63892,6.97041-4.33612,9.08126-2.57708,2.05079-6.26679,3.10622-10.48564,3.10622-6.32971,0-10.89751-1.93352-13.82926-3.74977Z" fill="#8c4673"/>
      </g>
      <g>
        <path d="m327.39121,758.71003c0,.41187-.35181.70362-.70362.70362h-5.15701c-.35181,0-.70362-.29174-.70362-.70362v-38.43591c0-.40901.35181-.76082.70362-.76082h26.13115c.41187,0,.70362.35181.70362.76082v4.33612c0,.41187-.29174.70362-.70362.70362h-20.27052v11.18926h17.51611c.41187,0,.70362.2946.70362.70362v4.39619c0,.35181-.29174.70076-.70362.70076h-17.51611v16.40634Z" fill="#8c4673"/>
        <path d="m379.87947,759.99999c-11.48386,0-21.09427-8.61218-21.09427-20.44786,0-11.89288,9.61041-20.56513,21.09427-20.56513,11.4238,0,21.09141,8.67225,21.09141,20.56513s-9.66761,20.44786-21.09141,20.44786Zm0-34.86347c-8.02869,0-14.18107,6.38978-14.18107,14.41561s6.15238,14.35268,14.18107,14.35268c8.02583,0,14.11814-6.32685,14.11814-14.35268s-6.09231-14.41561-14.11814-14.41561Z" fill="#8c4673"/>
        <path d="m442.26417,720.27412c0-.40901.35181-.76082.70362-.76082h5.15415c.35181,0,.70362.35181.70362.76082v23.3796c0,4.57066-1.28711,8.37764-3.74977,11.18926-2.92889,3.28356-7.49955,5.15701-13.35732,5.15701-5.80057,0-10.37123-1.87346-13.30012-5.15701-2.45981-2.81162-3.74977-6.6186-3.74977-11.18926v-23.3796c0-.40901.29174-.76082.70362-.76082h5.09695c.40901,0,.76082.35181.76082.76082v22.67598c0,3.45517.82089,6.09231,2.46267,7.96863,1.87346,2.16806,4.5678,3.16343,7.96577,3.16343,3.51524,0,6.21244-.99536,8.0859-3.16343,1.69898-1.87632,2.51987-4.51346,2.51987-7.96863v-22.67598Z" fill="#8c4673"/>
        <path d="m492.93618,720.27412c0-.40901.29174-.76082.70362-.76082h4.80234c.41187,0,.76368.35181.76368.76082v38.43591c0,.41187-.35181.70362-.76368.70362h-4.57066c-.58349,0-.87809-.11727-1.28711-.76082l-22.2069-28.29922v28.35642c0,.41187-.29174.70362-.70362.70362h-4.86241c-.35181,0-.70362-.29174-.70362-.70362v-38.43591c0-.40901.35181-.76082.70362-.76082h4.57066c.58635,0,.87809.17733,1.34717.76082l22.2069,28.35928v-28.35928Z" fill="#8c4673"/>
        <path d="m542.14089,756.54196c-3.98431,2.22527-8.55498,2.87168-13.06558,2.87168h-13.82926c-.35181,0-.70362-.29174-.70362-.70362v-38.43591c0-.40901.35181-.76082.70362-.76082h14.64729c6.38692,0,12.13028,1.46444,16.52361,6.21244,2.87168,3.10336,4.74514,7.61396,4.74514,13.7692,0,7.37942-2.87168,13.59186-9.0212,17.04703Zm-21.03421-2.63714h7.43948c3.45803,0,6.67866-.52628,9.2586-1.87346,4.5106-2.28533,6.67866-6.79593,6.67866-12.53643,0-4.51346-1.2299-7.79415-3.34076-10.07949-2.75155-2.98609-6.97041-4.33612-12.18462-4.33612h-7.85136v28.8255Z" fill="#8c4673"/>
        <path d="m567.85159,758.65282c-.17733.52628-.52914.76082-1.1727.76082h-5.03974c-.46908,0-.64355-.23454-.64355-.52628,0-.17733.0572-.35467.11727-.58635l14.41275-38.20137c.17733-.52914.52628-.76368,1.11263-.76368h5.39155c.64355,0,.93816.23454,1.1727.76368l14.23541,38.20137c.06007.17447.17733.40901.17733.58635,0,.29174-.17733.52628-.70362.52628h-5.15701c-.64355,0-.99536-.23454-1.16984-.76082l-2.98895-8.20317h-16.69808l-3.04616,8.20317Zm11.4238-31.34823l-6.73873,17.87078h13.41739l-6.67866-17.87078Z" fill="#8c4673"/>
        <path d="m633.5227,719.5133c.40901,0,.70362.35181.70362.76082v4.33612c0,.41187-.2946.70362-.70362.70362h-12.65656v33.39616c0,.41187-.35181.70362-.76082.70362h-5.09695c-.41187,0-.70362-.29174-.70362-.70362v-33.39616h-12.71377c-.41187,0-.70362-.29174-.70362-.70362v-4.33612c0-.40901.29174-.76082.70362-.76082h31.93172Z" fill="#8c4673"/>
        <path d="m651.61944,719.5133c.35181,0,.70362.35181.70362.76082v38.43591c0,.41187-.35181.70362-.70362.70362h-5.15701c-.35181,0-.70362-.29174-.70362-.70362v-38.43591c0-.40901.35181-.76082.70362-.76082h5.15701Z" fill="#8c4673"/>
        <path d="m687.17794,759.99999c-11.48386,0-21.09427-8.61218-21.09427-20.44786,0-11.89288,9.61041-20.56513,21.09427-20.56513,11.4238,0,21.09141,8.67225,21.09141,20.56513s-9.66761,20.44786-21.09141,20.44786Zm0-34.86347c-8.02869,0-14.18107,6.38978-14.18107,14.41561s6.15238,14.35268,14.18107,14.35268c8.02583,0,14.11814-6.32685,14.11814-14.35268s-6.09231-14.41561-14.11814-14.41561Z" fill="#8c4673"/>
        <path d="m750.85547,720.27412c0-.40901.29174-.76082.70362-.76082h4.80234c.41187,0,.76368.35181.76368.76082v38.43591c0,.41187-.35181.70362-.76368.70362h-4.57066c-.58349,0-.87809-.11727-1.28711-.76082l-22.2069-28.29922v28.35642c0,.41187-.29174.70362-.70362.70362h-4.86241c-.35181,0-.70362-.29174-.70362-.70362v-38.43591c0-.40901.35181-.76082.70362-.76082h4.57066c.58635,0,.87809.17733,1.34717.76082l22.2069,28.35928v-28.35928Z" fill="#8c4673"/>
      </g>
    </g>
    <g>
      <g>
        <path d="m643.67291,537.92244c-.00452.01517-.00685.01032-.01121.02424.05979,1.2566.12441,2.51288.17968,3.76963.00841-1.25519-.02896-2.51648-.16847-3.79388Z" fill="#8c4673"/>
        <path d="m660.33301,346.96323c-1.5209-8.78116-9.04426-16.70848-16.79728-19.77271-3.04833-1.20498-6.25377-2.04412-9.40875-2.88529-2.07395-.55291-4.17686-1.00149-6.22652-1.63636-3.79072-1.1737-7.65477-1.99157-11.56164-2.53931-2.13062-.29874-4.31419-.12513-6.26685.99023-3.48508,1.99047-6.04435,4.93723-7.88038,8.57486-.23449.46438-.43098,1.00353-.45652,1.51811-.10121,2.03974-.17501,4.08386-.15897,6.12532.00654.85947.26096,1.71707.40296,2.5756.17703.9577.28929,1.93479.5476,2.8709.64289,2.32128,2.35873,4.26842,3.07418,6.53121,1.49131,4.71842.6172,11.46687.45185,16.41693,0,.00016-.5121,15.3485-.5121,15.3485-.53888,15.20945-.8587,30.42719-.87754,45.64634-.03083,24.89012.68509,49.7998,2.65627,74.62032,1.61432,20.32765,9.57068,75.15587,11.10917,74.68023.34286.70916,2.74643,1.27537,5.69573.82287-.42802-.11731,4.42598,2.68102,7.23095,3.149.31997-.34332.66827-.7173.88844-.95332.49747-.08853.82849-.14718,1.1195-.1988.1325-.61375.24227-1.12208.33772-1.56394.56271-.42559,1.05223-.7955,1.52619-1.15399l.06088-3.50295c.47474-.29734.92051-.57621,1.42389-.89154.16489-.45766.4397-.94299.4984-1.45242.08019-.69352-.00763-1.40612-.01791-2.11028-.00872-.59936-.21098-1.27537.74503-1.61696,1.01891,1.31681.78707,3.44055,2.75452,4.41561.75547-.16798,1.67255-.37194,2.54495-.56605.31498-2.02394.61798-3.853.87333-5.68847.0724-.51975.06026-1.06546-.00638-1.5874-.44998-3.52501-.56769-7.08271-.62779-10.64916-.24103.3086-.47785.60969-.64274.77141-.0109-1.3617-.07474-3.67172-.08532-5.03405-.13375-.84649-.21658-1.95669-.24616-2.80709-.06929-1.99235.36855-3.86739.29786-5.85958-.02725-.77032-.26532-1.53344-.40732-2.30001.27201-1.38172-.19992-2.87606.6404-4.17192.13811.42215.33258.84023.41323,1.26489.02491-.57152.05278-1.12208.07894-1.55909.62421.53164.43628.84821.48501,1.67546.17594,3.02966.2949,6.05916.43301,9.08741.1462,2.478.29225,4.95632.4383,7.43463.52176,4.03287,1.04336,8.06574,1.5578,12.04278.68929.60093,1.28579,1.12036,1.78715,1.55753.54683,1.66264.2295,3.56536,2.17874,4.57655.92269-.4123,1.87808-.8393,2.70376-1.20811,1.0337-2.62972.39766-5.12993.5174-7.73885.08953-5.15073.17952-10.30131.27248-15.45361.51631,1.71722,1.06095,3.50483,1.88368,5.09615,1.21043-1.12818,1.63549-3.12773,1.52027-4.74766.39081.22773.613.44123,1.04787.32846.64165-.16626.02663-7.46748-.03706-8.01163-6.75341-57.82785-6.54944-114.51781,1.79929-172.43732.88766-6.15801,1.22195-12.23923.22047-18.02342Zm-43.28186,46.4556c1.08882,2.70902.84375,5.43493.84484,8.1269.00078,2.00517-.36948,4.0141-.64102,6.01255-.06726.49519-.39284.95582-.85792,1.38939.21798-5.17623.43612-10.35261.6541-15.52884Zm-.30642,22.13215c.73336,3.7859.77431,7.60433.31592,11.43528-.39175-3.79575-1.08851-7.57727-.31592-11.43528Zm1.02685,36.62493c-.65955-2.80255-.79953-5.32122-.66967-7.86413-.68478-5.62168-.68945-8.40296-.00716-9.9827.89093.12106.64134.86479.77649,1.39267.13126.86604.35811,1.73036.37431,2.59844.03628,1.94668-.06228,3.89523-.04873,5.84269.0109,1.57833.10525,3.15604.41214,4.73359-.25193.9871-.50416,1.97436-.83736,3.27945Zm23.97498-20.02656c.08283,1.12271.16676,1.80716.17781,2.49286.03207,2.02113-.02631,4.04523.06415,6.0637.1378,3.07893.38287,6.15316.55009,9.23131.02725.49879-.11257,1.00634-.23776,2.01253-.43067-.65176-.71779-.88794-.7346-1.14132-.22857-3.42882-.45901-6.85873-.60443-10.29145-.08205-1.9326-.01323-3.87099-.00327-5.80672.00389-.75687-.22873-1.57145.78801-2.5609Zm-.43659,26.83289c.87302,1.3847.43488,2.38588.5557,3.74727q-1.13538-1.51608-.5557-3.74727Zm-.03052,11.97427c.30782.01705.61549.03425.92316.05146-.0028,1.46759.46166,2.95849-.26874,4.67712-.33632-.45844-.72697-.74654-.73585-1.0456-.03612-1.22594.04406-2.45501.08143-3.68298Zm1.6439,52.74077c-.27372-.64159-.48766-.92438-.50525-1.21859-.13063-2.20209-.19354-4.40826-.3399-6.6091-.06353-.95441-.27404-1.89928-.41775-2.84854.06275-.33769.12534-.67522.18326-.98773.63246-.21444.92611.10949.95881.57981.1557,2.24432.29615,4.49068.37618,6.73861.03472.97209.07116,1.91477.62935,2.75719-.23542.42278-.471.84555-.8847,1.58834Z" fill="#8c4673"/>
      </g>
      <path d="m387.96424,365.88913c.88766-6.1577,1.22195-12.23907.22047-18.02311-1.5209-8.78147-9.04426-16.70848-16.79728-19.77286-3.04833-1.20483-6.25377-2.04412-9.40891-2.88514-2.07395-.55307-4.1767-1.00149-6.22636-1.63636-3.79072-1.1737-7.65477-1.99172-11.5618-2.53963-2.13047-.29874-4.31403-.12497-6.26685.99054-3.48492,1.99016-6.04419,4.93692-7.88023,8.57486-.23449.46438-.43098,1.00353-.45652,1.5178-.10121,2.04005-.17501,4.0837-.15913,6.12532.0067.85978.26111,1.71707.40296,2.5756.17719.95785.28945,1.93479.5476,2.8709.64305,2.32128,2.35888,4.26842,3.07433,6.53152,1.49131,4.7181.61705,11.46656.45185,16.41693l-.51226,15.34834c-.53857,15.20351-.85838,30.41499-.87738,45.62819-.04531,36.22952,3.00925,72.18987,5.62146,108.28019.25815,3.56786.56395,7.13385.73445,10.70547.10697,2.23901.2471,4.45111.75765,6.65055.3427,1.47557.43783,3.00964.59852,4.52212.38816,3.65201.96068,7.24725,2.30127,10.71939.93265,2.41481,1.56278,4.94224,2.49793,7.96924,1.65667,1.75038,4.32042,2.78832,6.73395,3.54096,2.60427-.36052,4.81679-.66678,6.92593-.95895,1.22646-1.63573.38863-3.78496,1.60108-5.34296,1.41611.43748,1.68267,1.4166,1.61245,2.55527-.05403.87855-.36014,1.76102.16489,2.72091.27622.06819.60786.15062,1.0362.25651.49607-.66146.97127-1.29539,1.3462-1.79527.27793-1.94324.52908-3.69862.73289-5.12305,1.19937-1.21515,2.10867.08853,3.04164-.17424,1.10393-1.14727.08984-2.92768,1.34464-3.96264q1.90128.5734,3.72314-.38133c.51428-2.44688,1.06438-5.06439,1.62817-7.74714.6703-.50614,1.38902-1.0492,1.94721-1.47088.62872-1.00165.73024-5.48936.76605-6.45644.14807-3.99502,1.9592-1.28506,3.73794-.85666,0,0,2.95787-1.75789,2.94339-2.52743-.35889-19.05307-1.29871-38.07328-1.99143-57.09507-.75905-20.84302-1.22117-41.68807-.29661-62.58067.9353-21.1391,2.9219-42.22941,5.94049-63.17081Zm-48.03528,42.64358c-.47691-5.41929-.39159-10.799.41339-16.41537.70346,4.71419.62327,10.02806-.41339,16.41537Zm36.39906,137.27466c-.23028-.51662-.49124-.87496-.54636-1.26113-.52705-3.69847-1.4281-7.35689-1.28734-11.12919-.04796-.14452-.09591-.28889-.14387-.43341-.10728-1.75179-.24181-3.50264-.3114-5.25584-.03846-.96802.03192-1.94026.05309-2.91063q-.59167-1.79715.19058-3.27819c.71311,1.15274.46243,2.25183.36886,3.32762.88766,3.51844,1.73997,6.99762,1.27831,10.72111-.24461,1.97405.08719,4.06525.76154,6.0346.57329,1.67437.48283,2.42967-.36341,4.18506Zm.05948-116.66235c1.10253,1.90351.58201,3.32215-.88937,5.46527-.542-2.20335-1.0499-3.6528.88937-5.46527Zm-.14013-1.8727c-1.13335-.85243-.88299-1.8375-.50915-2.88905q1.78621,1.53203.50915,2.88905Zm2.72027-17.19976c-1.53429-1.56817-1.99423-2.75625-.53795-4.12703.73803,1.18887,1.25698,2.35053.53795,4.12703Z" fill="#8c4673"/>
      <g>
        <path d="m564.58525,545.30248c-2.56846-35.70383-2.90182-78.17583-1.20669-100.58279.38194-5.04781.74426-15.02614-3.70882-18.92059-5.81329-5.0841-16.61947-5.21642-23.89977-7.17546-7.38198-1.98641-16.59891-3.3722-20.89208,3.48731-1.35289,2.16284-1.66399,4.92363-1.51794,7.83692-4.5412,21.49259,3.93505,96.36974,9.00113,131.6913.16863,2.72435.33305,5.44901.51382,8.17288.19214,2.89452,1.3599,5.59963,1.73358,8.45489.05372.40995.37758.78924.54278,1.11598,1.13258.21866,2.18979.42293,3.19454.61704,1.31428-1.39142,1.31662-2.9136.93748-4.50851-.1487-.62564-.82771-5.6661-.22701-6.46567,1.02218.98319,1.88493,6.46051,2.35935,7.5693.42382.99086.89217,1.94292,2.07193,2.33066.24834.08133.52705.08118.75936.11418.41806-.39994.79252-.75781,1.13071-1.08126.45807.12638.81167.22414,1.22164.33722.47147-.52773-1.19641-2.83383-.65519-3.43961,1.40272.01032,3.00614-1.27646,3.86125-2.25559.87255-.99915,3.79461,1.81889,4.83781,1.55894.34161-.6929.6896-1.39877,1.00942-2.0474-.18529-1.21405-.3564-2.33489-.51802-3.39347.33881-.79331,2.39049,1.21718,2.73023.42184.79766.18613-.15913-2.36304.68415-2.16628,1.04974-.94534,2.03752-1.83484,2.88656-2.59938.0942-1.03747.09778-2.24855.1406-2.72044,1.27068-.58106,2.37259-.60843,3.40037-1.07876.4805.33253.95523.66099,1.53724,1.06359.69085-1.07328,1.26103-1.95919,1.78652-2.77565-.16286-1.35357-.35593-2.56278-.44266-3.77871-.10743-1.50701.30751.06303,1.41689-1.14054.31872-.34613.56006,2.328,1.20435,1.95418.31296.95222.57049-4.21618.81852-3.4809.19541.57903.33056,1.19106.63402,1.71691.17267.29952.62935.455,1.04601.73434.74317-1.53845.43379-2.93832.49653-4.25685,1.28859-2.54823,1.30992-2.54964,1.1114-5.30964Zm-37.12805,4.21071c-.25068-1.51764-.38552-3.05249-.53141-4.58375-.00763-.0818.24616-.18488.54106-.3929.41884,1.83891.82117,3.60446,1.38248,6.06855-.80171-.6089-1.34635-.81474-1.39213-1.0919Zm.88018,13.06851c-.15539-1.50404-1.06827-2.88936-.41775-4.58062.5666.18926,1.00755.33644,1.62304.5418-.62483,1.40722.25021,2.95771-1.20529,4.03881Zm11.62112-65.39511c.42787,2.33786,1.65947,4.54324,1.47808,7.22066-1.11218-1.39549-1.88306-4.88484-1.47808-7.22066Zm1.6151,13.67601c-.55041-1.27849-1.02296-2.54557-.63184-3.98423,1.07497.62408,1.31241,1.93917.63184,3.98423Zm14.13197-13.29124c-.77882-1.15603-.65083-2.18473-.40467-3.63794.45512.53555.82413.7783.88049,1.07297.1543.80582.27917,1.65184-.47583,2.56497Zm.92331-6.2334c-.11958.18488-.28556.34629-.51631.47549-.14107.08227-.28198.16423-.49575.28873-.48828-.44733-.48299-1.00509-.44297-1.57333-.03005-.09635-.04687-.19504-.05014-.29546-.07645-.53993-.15274-1.07954-.22919-1.61962.0095-.20537.019-.41089.02834-.61641-.00498-.53868-.00981-1.07704-.01479-1.6154-.05512-.87089-.14122-1.74147-.1515-2.61283-.00483-.40416.13764-.80958.21331-1.21468.00701-.40041.01386-.80082.02491-1.43052.4109.30453.70564.42935.83783.64238.21534.34692.32448.75171.47847,1.13209.40763.69477.32121,1.4579.35126,2.20475.10681.43216.21378.86432.32075,1.29648.01557.00328.02709.01001.04235.01345-.23994,1.17479-.47972,2.34959-.71965,3.52407.10775.46688.21534.93392.32308,1.40081Zm3.74806,50.74451c-.01479.85103-.02958,1.70205-.05263,3.03013-.48657-.65989-.83892-.93502-.89217-1.25362-.09903-.59389-.02413-1.21327-.02164-1.82217-.05839-2.48363-.67855-4.9571-.30876-7.70021,1.02576,1.87129,1.4991,4.9876,1.2752,7.74588Z" fill="#8c4673"/>
        <path d="m569.02194,365.46755c-.1577-.45579-.29771-.86029-.50369-1.4554-1.56418.34239-3.05722.66921-4.63706,1.01506-1.26177-1.37428-.88839-2.81064-.06011-4.36272-.78854-1.68053-.93858-3.64721-2.00785-5.17822-2.79833-.91643-5.42373-1.7762-7.98576-2.61525-.76711-1.14664-1.01939-2.61133-2.71589-2.86285-.41257.10563-.83265.21324-1.12345.28769-1.83054-1.5625-1.60298-4.115-3.58511-5.31525-.62766.18266-1.1409.33199-1.41269.41113-1.65459-.32792-.79464-1.73995-1.65986-2.51281-.86955.42704-1.74379.85633-2.59661,1.27517-.76001-.32359.00572-1.46072-1.03214-1.63397-.89914.74473-1.78345,1.47703-2.68722,2.22549-.8487-.57751-1.56552-1.06529-2.20699-1.50185-1.30187.41751-1.99212,1.22724-2.64869,2.08037-2.17151,2.82183-4.25013,5.71355-6.55901,8.43287-1.56054,1.83783-2.57276,3.78032-2.72439,6.23676.49964.22243,1.03222.45961,1.69802.75602-.25837.48601-.3564.97515-.67071,1.21305-2.38055,1.80142-3.18422,4.19553-3.09361,6.95614.37615.77285.75446,1.55009,1.07269,2.204-.71949,2.04811-2.84045,2.00866-4.19033,2.98344-.57216,1.35348-.42416,2.68753.14218,3.97558,2.56684,1.85618,2.70913,1.85268,5.54929,2.2238,1.24507.16272,2.3883-.11723,3.57629-.26079.81073-.09795,1.63629-.08962,2.36477-.12457.37263.60317.64421,1.04259.89835,1.45399,1.00219.36847,1.9366.71202,2.48753.91456,4.12796-.04835,6.64637-2.61555,9.54103-4.08181l2.46873.04329c-.09396.65135-.17519,1.21465-.267,1.85156.4044.17834.81243.35822,1.14486.50486,1.24975-.4315,2.36097-.87485,3.51454-1.17727.34826-.09127.81387.2084,1.22567.32896-.00718.4132-.01436.82633-.02402,1.38232.39089.235.88796.53383,1.50049.90208.50969-.41295.95911-.77707,1.40854-1.14118,5.41243-3.66732,10.38039-7.80441,14.992-12.2254-.13311-.59633-.22395-1.003-.32119-1.43843.36928-.57935.74316-1.16601,1.12839-1.77045Z" fill="#8c4673"/>
      </g>
      <path d="m298.75907,347.32234c-1.5209-8.78147-9.04426-16.70848-16.79712-19.77286-3.04833-1.20483-6.25392-2.04412-9.40891-2.88514-2.07395-.55307-4.1767-1.00149-6.22636-1.63636-3.79072-1.17386-7.65493-1.99172-11.5618-2.53963-2.13062-.29874-4.31403-.12497-6.26685.99054-3.48508,1.99016-6.04419,4.93676-7.88038,8.57486-.23449.46438-.43083,1.00353-.45652,1.5178-.10121,2.04005-.17485,4.0837-.15897,6.12517.0067.85994.26111,1.71722.40296,2.57576.17719.95785.28929,1.93479.5476,2.8709.64305,2.32128,2.35888,4.26842,3.07433,6.53152,1.49131,4.7181.61705,11.46656.45169,16.41678l-.5121,15.3485c-.53873,15.20961-.85854,30.42703-.87738,45.64634-.02834,22.87963,1.0678,46.203,2.1068,69.24248,1.06064,23.52216,1.26181,47.16601,5.26849,70.43213.68556,3.9811,1.90314,7.72899,3.7848,11.10197,1.6752,1.84329,3.81952,1.76509,5.89129,2.13687.35656-.84555.65784-1.5605.81775-1.93979,2.12658-1.79027,4.13077-.27794,5.93224-.39462,1.1033-1.11348.80669-2.46095,1.15858-3.77714,1.22101-.38821,2.29084-1.11896,3.0119-2.54839.00794-.45093.01043-1.06812.03223-1.685.01557-.44233.03005-.90108.71498-.98272.94682.97224,1.64219,2.66319,3.60045,1.68891.7072-1.34591,1.24188-2.71355,1.05675-4.3019-.10837-.93095-.03301-.94018.6594-2.32175.7631.91515.67886,2.00017.71062,3.04436.03675,1.20498.25738,2.30063,1.5606,3.02559.46508-.01533,1.0594-.03457,1.53444-.05036.8246-.93173.84499-1.90382.88267-2.88639.04064-1.06077.13141-2.11998.2281-3.17715.01183-.12966.19447-.24384.31234-.38164.67185.0513,1.35632.10386,1.93475.14843,1.80972-1.74569.13344-3.67923.6186-5.59196,1.65262-1.21452.74659-3.37439,1.48275-5.04156.8-.15625,1.55468-.30406,2.36527-.46282.14916-.71808.27279-1.31369.39626-1.90883-.18591-1.40597-.37182-2.81162-.55772-4.21744-.11522-.51115-.29023-1.01713-.336-1.53469-.29537-3.33435-.57454-6.67072-.8288-10.00898-.04873-.64097.03597-1.29226.2566-1.94292,1.37127,3.50108,1.03184,7.22082,1.55702,10.8173.20413,2.27326.05014,4.57514.54511,6.82541.84795,1.23767,1.85285,2.07087,3.62365,1.41645.01635-.93768.07988-1.80794.0383-2.67351-.20397-4.24715-.43861-8.49259-.65426-12.73927-.02242-.4417.00903-.88622.01479-1.32933.02429-1.85393.17812-3.72068.04142-5.55802-2.48594-33.42541.73616-124.3879,3.66989-148.87793.61129-5.1035,1.28407-10.19964,2.01743-15.28687.8875-6.1577,1.22195-12.23907.22032-18.02311Zm-45.13097,99.70033c-.05341,1.67984-.1448,3.3589-.17018,5.03906-.04235,2.82726-.04002,5.65531-.06835,8.48289-.00825.83413-.05683,1.6678-.09186,2.64067-.33647-.06819-.4559-.09228-.56208-.11387-.55959-1.83782-.62857-9.757-.14947-16.87678.08564-.07304.2116-.18018.41557-.3538-.0081-.14843-.02149-.39134-.03643-.66255.17657-.03332.34021-.06428.47816-.09025.08937.09729.19136.15672.19229.21741.00794.5723.01059,1.14523-.00763,1.71722Zm4.3788-6.52354c-.89762-2.25903-.95399-5.84848-.26173-9.50471.25862,2.96021.48112,5.30042.65052,7.64437.02958.40839-.16489.83304-.38879,1.86034Zm16.63753,58.65776c-.77633-1.74694-.53125-3.49498-.25255-5.28196.28743.08039.55632.09807.5708.1683.35391,1.7141.32557,3.42021-.31825,5.11366Zm1.87341-27.43632c-.471-1.55221-.87349-3.10724-.68509-4.72921.03223-.2781.38474-.51912.69427-.90968.94651,2.01206.35952,3.81953-.00919,5.63889Zm9.02121,48.83303c-.37773.17143-.67637.30672-1.11233.50458-.1817-.68852-.45854-1.2652-.46757-1.84595-.07925-5.06361-1.04196-10.09031-.7796-15.51007.72448.4381,1.19486.72246,1.55889.94268.90852,3.52954,1.32097,11.61891.80062,15.90876Z" fill="#8c4673"/>
      <path d="m477.6102,347.21286c-1.5209-8.78116-9.04426-16.70833-16.79728-19.77255-3.04833-1.20514-6.25377-2.04412-9.40875-2.88545-2.07395-.55275-4.1767-1.00149-6.22652-1.63636-3.79056-1.1737-7.65477-1.99141-11.56164-2.53916-2.13062-.2989-4.31419-.12513-6.26685.99007-3.48508,1.99063-6.04435,4.93723-7.88038,8.57486-.23449.46438-.43098,1.00353-.45652,1.51827-.10121,2.03958-.17485,4.0837-.15897,6.12517.00654.85963.26111,1.71722.40296,2.5756.17719.95785.28929,1.93479.5476,2.87106.64289,2.32112,2.35888,4.26842,3.07418,6.53105,1.49131,4.71857.6172,11.46687.45185,16.41693,0,.00031-.5121,15.34834-.5121,15.34834-.53888,15.20961-.8587,30.4275-.87754,45.64681-.02989,24.155.65395,48.32767,2.49528,72.4201,0,0,4.06226,38.8619,8.2002,56.13252,1.26259,5.26913,3.27986,19.11391,7.52414,22.59231,2.17329,1.78151,4.47051,2.1741,7.15653,1.68203,1.24888-1.15884,2.65145-2.46064,4.10259-3.80717,1.11592-.09697,2.08921-.5465,2.58434-1.74991.10837-.97318.21596-1.93964.32744-2.94019.68244-.29155,1.30213-.55619,1.92494-.82193.31888-.85853.61876-1.66655.90089-2.42607,1.56153-.05568,3.02435-.01611,4.30407-1.3115.25551-.95598.54885-2.05335.73242-2.7403,1.14534-.93361,1.99952-1.62963,2.79516-2.27827.23511-2.12764.44982-4.06978.6608-5.9797.38567-.62892.75173-1.2261,1.1251-1.83531l.05169-2.97038c.45465-1.50075.74955-2.51742,1.0731-3.5247.18793-.58529.42117-1.15509.63402-1.73193-.08891-1.58537-.18809-3.17011-.26314-4.75627-.05777-1.21906-.08532-2.43952.27154-3.75368.17158.40948.43986.80535.4942,1.23126.11133.87371.09607,1.7643.15461,2.64599.1051,1.58302.22623,3.16542.34083,4.74766.3195.69634.63884,1.39205.89996,1.96107,1.99999.39118,3.20357-.4453,4.20224-1.84626.02834-1.62979.10557-3.23018.07458-4.82806-.23776-12.65872-2.90353-47.53561-2.90353-47.53561-2.3251-42.74212-.63106-85.18862,5.58549-128.31692.88766-6.15801,1.2221-12.23891.22047-18.02342Zm-47.69009,59.16875q-.65971-1.95184-.36995-3.81437c-.00171-.00203-.00389-.00469-.00561-.00673.00125-.0036.00156-.00735.0028-.01095-.73242-.83085-.89856-1.88036-1.09567-2.93691-.54215-2.90672-.29879-5.81141-.03348-8.73784.35998,1.43381.96831,2.77393.92409,4.31316-.02771.96614.13982,1.9667.38365,2.90563.39611,1.525.30113,2.98868-.17859,4.45596.00187.00203.00265.00438.00452.00641-.00062.00422-.00109.00704-.00171.01126.27186.33018.54356.65989.8724,1.05905-.15959.87543-.31592,1.73271-.50245,2.75532Zm18.61183,24.76484c.90681,2.79723,1.09848,6.29597.55461,7.81846-.94978-1.76618-1.20731-4.63677-.55461-7.81846Zm1.52681,21.14911c-1.11576-3.23471-1.45348-8.13003-.89482-10.8428.94246,1.5458,1.14363,3.78918.89482,10.8428Zm15.64321-51.27928c.00202-.33691.00374-.67366.00529-1.01056.74659-1.54721.45325-3.21594.52923-4.84135.11008-.96693.20911-1.93542.34519-2.89843.01666-.11825.232-.20662.48174-.41339.47738,1.02839.27839,2.08354.28805,3.09035.01105,1.15493-.08548,2.31064-.11678,3.46651-.0288,1.06718-.03285,2.13499-.04796,3.20249-.45387,1.74804-.25473,3.52704-.29443,5.30151-.06368,2.84807-.30393,5.69207-.47084,8.53779-.04687.80066-.06882,1.60476-.16146,2.40011-.03628.31235-.2348.60437-.41806,1.04732-.57859-1.7751-.60957-9.00248-.13998-17.88234Zm-.36154,22.06833c.63869-.03472.6471.42278.6281.71855-.09482,1.47463-.24585,2.94535-.37695,4.41748-.4042-1.72504-.39595-3.43085-.25115-5.13603Zm-.03877,9.73354c.11678.63002.5803,14.13069.4805,14.97311-.02694.22836-.20646.43748-.52612,1.07407-.60911-2.98461-.52799-11.78892.04562-16.04718Zm-.89061,78.63114c-.28338-.06194-.59852-.13076-.91381-.19974-.24196-3.15729-.65255-6.30285-.48003-9.48673.05621-1.03997-.04764-2.08901-.08346-3.31057,1.90891,2.07212,2.61719,7.04282,1.51981,9.89011.68727,2.14031,1.12977,4.36696.94418,6.68746-.31997-1.16072-.63978-2.32143-.98668-3.58053Zm2.24164,21.22841c-.30829-.18691-.54029-.24369-.57438-.36209-.19369-.67194-.45776-1.35357-.4833-2.04068-.15446-4.17614-.25084-8.35463-.36668-12.53234.3153.06898.63044.13795.91381.19974.3469,1.2591.66672,2.41997.98668,3.58069.1666,3.37048.3332,6.74095.50463,10.20981-.33523.32314-.67855.65379-.98077.94487Z" fill="#8c4673"/>
      <path d="m749.70572,347.23444c-1.5209-8.78085-9.04426-16.70848-16.79712-19.77255-3.04833-1.20514-6.25392-2.04412-9.40891-2.88561-2.07395-.5526-4.1767-1.00134-6.22636-1.6362-3.79072-1.17386-7.65493-1.99157-11.5618-2.539-2.13062-.29874-4.31403-.12528-6.26685.98992-3.48508,1.99078-6.04419,4.93739-7.88038,8.57486-.23433.46438-.43083,1.00353-.45652,1.51843-.10121,2.03943-.17485,4.0837-.15897,6.12517.0067.85932.26111,1.71722.40296,2.57576.17719.95754.28929,1.93479.5476,2.87059.64305,2.32159,2.35888,4.26874,3.07433,6.53152,1.49131,4.7181.61705,11.46656.45169,16.41646,0,.00063-.5121,15.34881-.5121,15.34881-.53888,15.20945-.8587,30.42735-.87754,45.64634-.04593,40.40207,1.70556,80.4358,7.91915,120.39147,1.13164,7.27775,8.42768,36.95198,15.81589,32.07027.71623-.47298,2.88998-3.94168,2.53218-3.82766,1.22911-.39196,2.30595-1.12897,3.03183-2.56997.00779-.455.01043-1.07798.03239-1.70002.01557-.44608.03036-.90921.71997-.99148.95336.981,1.65355,2.68618,3.62536,1.70409.71234-1.35826,1.25075-2.73795,1.06438-4.3399-.10915-.93924-.03316-.94831.66391-2.34224.76854.92329.68353,2.01769.71561,3.07111.0369,1.2153.25909,2.3205,1.57134,3.05203.46835-.01517,1.06687-.03504,1.54519-.05083.8302-.94018.85091-1.9204.88875-2.91188.04095-1.06984.13266-2.13828.22997-3.20468.01199-.13076.19587-.24603.31452-.38508.67637.05177,1.36566.10495,1.94814.14937,2.54214-2.45626,3.66662-7.63077,4.04451-13.16768.44328-6.49633-.14122-13.49144-.66967-17.17896.72464,5.05626,1.44912,10.11237,2.1736,15.16894.28914,2.018,2.15382,4.69151,3.64483,3.30385.63106-.58716-.20522-5.86756-.24196-6.86389-.09949-2.69916-.20413-5.39833-.3114-8.09734-.20584-5.1781-.42304-10.3559-.63791-15.53384-.39782-9.58698-4.60395-109.60435,4.82894-157.48641,1.20249-6.10389,1.2221-12.23938.22047-18.02373Zm-48.31632,86.59146c-.05512,2.07618-.13998,4.15174-.17298,6.22808-.05559,3.49404-.07583,6.98855-.1202,10.4829-.01308,1.03074-.05761,2.06148-.0928,3.2638-.26345-.08149-.35702-.11043-.44017-.13623-.4246-2.26654-.41666-12.05185.0151-20.85366.06773-.09072.16738-.22414.32884-.44045-.00529-.18331-.01386-.48331-.02336-.81834.13873-.04254.26734-.08212.37571-.11543.06944.11965.14901.19223.14916.2673.00187.70713-.00062,1.41504-.01931,2.12201Zm18.14503,26.05913c-.90369-2.27874-.96037-5.89962-.26329-9.58777.26033,2.98618.48439,5.34671.65488,7.71116.02974.41198-.16598.84039-.39159,1.87661Zm15.1431,13.41058c.03254-.2806.38739-.5235.6991-.91766.95305,2.02973.36201,3.853-.00934,5.68816-.47427-1.56582-.8794-3.13445-.68976-4.7705Zm1.439,24.0976c-.31436-2.16002-.79128-4.3349-.35562-7.12118.41759.7747.73164,1.09362.74441,1.42427.07256,1.87144.07489,3.74555.09015,5.61902.00062.06428-.10541.16767-.17719.18394-.0724.01642-.16427-.05334-.30175-.10605Zm.87271,10.24187c-.78178-1.76211-.53484-3.52548-.25426-5.32794.28961.08102.56037.09885.57485.16955.35625,1.72911.32775,3.45024-.32059,5.1584Zm2.92299,18.63076c-.1898.06163-.33974.11027-.55881.18128-.09311-.25151-.23386-.4625-.23978-.67428-.05216-1.84689-.549-3.68251-.42989-5.65844.36574.16157.60319.26652.78707.3477.46586,1.28944.69303,4.24058.44141,5.80374Z" fill="#8c4673"/>
      <g>
        <path d="m821.92509,381.0651c-.95759-.60013-1.63994-1.02776-2.35189-1.47394-.79319.35035-1.53127.67634-2.38613,1.05393-.6064-.26581-1.25532-.55025-2.02225-.88641-1.37081.45647-2.83131,1.05472-4.50549.43399-.8492-.45938-1.10987-1.79513-2.49515-1.82602-.88088.49308-1.81324,1.015-2.86479,1.60362-1.26147-.02212-2.61452-.04584-3.97342-.06967-1.08369.69246-2.20574,1.40938-3.41232,2.18032-3.02831-.35017-6.01574-.69562-8.98336-1.03878-.40138-.65439-.71545-1.1664-1.11591-1.81925.49105-.82136.93007-1.67122,1.48805-2.44294.30211-.41774.82595-.68386,1.21543-1.05143.45505-.42942,1.06846-.82596,1.27312-1.35641.96154-2.49165,3.00846-4.33304,4.24204-6.67683-.22399-1.06657-.4639-2.11917-1.12993-3.11009-1.23721-1.84047-1.23267-3.89763-.13835-5.73979,2.389-4.02163,4.88915-7.98728,7.48346-11.89149.86846-1.307,2.11286-2.40404,3.28191-3.50393.49113-.46205,1.23282-.68243,1.67463-.91486,1.65492.17691,2.21884,1.18477,2.67462,2.25362.51516.10572.95687.19636,1.31085.26901,1.14669-.55218,2.1926-1.05587,3.26428-1.57195.52925.40949.94449.73077,1.26138.97593.55067,1.62719-.77499,2.52715-1.32649,3.85909.48607.32043.96916.63883,1.43129.94345,1.73001-.64555,2.7035-2.38094,4.91317-2.30949,1.0913.85107,2.47006,1.69855,3.88356,1.46738,1.71959.88734,3.14174,1.62121,4.65362,2.40135,1.52404,2.21664,3.11992,4.5378,4.73626,6.88866-.01026.5905-.02034,1.17071-.02894,1.66524,1.24268.84053,2.23598-.08439,3.28133-.11082,1.17721.16095,2.05444.94627,1.91922,1.89627-.19252,1.35247.6219,2.31955.82112,3.28294-.10773,2.27883-1.44022,3.63832-2.98051,4.94637-3.21056,2.72647-6.33178,5.54817-9.5166,8.30259-1.62675,1.4069-3.5929,2.30802-5.5778,3.37033Z" fill="#8c4673"/>
        <path d="m835.93293,545.25916c-.20101-2.69963-.44359-5.39723-.74161-8.34009-.47614-4.70168-2.19415-77.4027-1.07325-92.21893.38194-5.04797.74426-15.02629-3.70897-18.92074-5.81313-5.08395-16.61931-5.21658-23.89962-7.17546-7.38198-1.98641-16.59891-3.3722-20.89208,3.48747-1.35289,2.16284-1.66399,4.92347-1.51809,7.83676.27715,5.52705-1.25449,11.67083-1.29092,17.31566-.05839,9.0541.39455,18.11382.97345,27.14634,1.23067,19.20807,2.95974,38.42959,4.9672,57.57134,1.34776,12.85079,4.84093,25.51498,6.11613,38.30587.27154,2.72341,1.31023,5.29463,1.65807,7.99911.05278.40995.37197.78971.53452,1.11677,1.11623.21866,2.15818.42278,3.14829.61672,1.29575-1.3933,1.29855-2.91673.92534-4.51305-.14636-.62627-.48657-1.27067.10557-2.07102,1.00739.98382,1.52853,2.06539,1.99594,3.17528.41728.99148.87847,1.94449,2.04141,2.33207.24461.08165.51927.08133.74815.11418.41245-.40057.78147-.75874,1.11483-1.08283.45169.12669.8.22429,1.20389.33738.46493-.52835.93234-1.05968,1.46578-1.66592,1.38263.01001,2.66795-.61328,3.51108-1.59382.8601-1.0004,1.92401-.6222,2.95242-.88262.33678-.69336.67995-1.40034.99525-2.04975-.18217-1.2153-.35064-2.33708-.50946-3.39675.33414-.79378.63838-1.51686.97329-2.31315.78614.18628,1.56122.3696,2.3922.5662,1.03495-.94644,2.00887-1.83703,2.84592-2.60266.09295-1.03825.16146-1.80341.20381-2.27561,1.25247-.58247,2.27403-1.05702,3.28718-1.52812.47333.33284.94122.66146,1.51467,1.06406.6812-1.07454,1.24344-1.96122,1.76146-2.77862-.16006-1.35451-.35017-2.56528-.43519-3.7823-.10541-1.50842.03597-2.99947,1.12962-4.20477.31436-.34613.83923-.51928,1.47434-.89373.30845.95316.54262,1.69204.78692,2.42795.19245.57919.32557,1.19216.62452,1.71816.17018.29984.62016.45531,1.03075.73466.73289-1.54017.42834-2.94129.49046-4.26107,1.27068-2.55073,1.3026-2.55277,1.09676-5.31496Zm-42.63461-43.05885c-.15274-1.50529-1.05223-2.89171-.41059-4.58484.5585.18926.99291.33644,1.59953.54196-.61627,1.40863.24585,2.96037-1.18894,4.04288Zm8.66777,37.00516c-.1529-1.50544-1.05223-2.89171-.41059-4.58484.5585.18941.99291.33628,1.59953.54196-.61627,1.40847.2457,2.96037-1.18894,4.04288Zm24.65384-33.09585c.42102,2.34005,1.6344,4.54715,1.45488,7.22723-1.09583-1.39643-1.85457-4.88906-1.45488-7.22723Zm2.79267,29.73117c-.47941-.66036-.82662-.9358-.87894-1.25456-.06726-.40948-.05403-.83085-.03784-1.25269-.07863-.00375-.15741-.00751-.23604-.01126-.05668-2.48613-.66734-4.96195-.30222-7.70772.94215,1.74616,1.3859,4.56904,1.26539,7.18171.08065.00375.16162.00766.24227.01142-.01479.85181-.02958,1.70362-.05263,3.0331Z" fill="#8c4673"/>
      </g>
    </g>
  </g>
  <rect x="90" y="170" width="900" height="740" fill="none"/>
</svg>