<?xml version="1.0" encoding="UTF-8"?>
<svg id="a" data-name="Layer 1" xmlns="http://www.w3.org/2000/svg" viewBox="0 0 110 65">
  <g>
    <g>
      <path d="m61.22748,3.77865c-.21411-1.23059-1.27325-2.34155-2.36469-2.77094-.42914-.16888-.88037-.2865-1.32452-.40436-.29199-.07751-.58801-.14038-.87659-.22931-.53363-.16449-1.07758-.27911-1.62762-.3559-.29993-.04187-.6073-.01752-.8822.13879-.4906.27893-.85089.69189-1.10938,1.20166-.03302.06512-.06067.14062-.06427.21277-.01428.28583-.02466.57227-.0224.8584.00092.12042.03674.24066.05676.36096.0249.13422.04071.27112.07709.40228.09052.32532.33203.59821.43274.91534.20996.66119.08691,1.60693.06366,2.30066-.00006,0-.07214,2.15094-.07214,2.15094-.07587,2.13147-.12085,4.26404-.12354,6.39691-.00433,3.4881.0965,6.97894.37396,10.45728.22723,2.84875,1.34735,10.53241,1.5639,10.4657.04828.09943.38666.17877.80182.11536-.06024-.01648.62311.37573,1.01801.44128.04504-.0481.09406-.10052.12506-.13361.07001-.01239.11664-.02063.15759-.02783.01862-.086.03412-.15729.04755-.21918.07922-.05963.14813-.11151.21484-.16174l.00861-.49091c.06677-.04169.12952-.08075.20044-.12494.02319-.06415.06189-.13214.07013-.20349.01129-.09723-.0011-.19708-.0025-.29578-.00122-.08398-.02972-.17871.10486-.22656.14343.18451.11084.48212.38782.61877.10632-.02356.23541-.05212.35828-.07935.04431-.28363.08698-.53998.12292-.79718.01019-.07281.00848-.14929-.00092-.22241-.06335-.4942-.0799-.99298-.08838-1.49286-.03363.04285-.06744.08606-.09045.10852-.00153-.1908-.01056-.51453-.01202-.70544-.01886-.11859-.03052-.27423-.03467-.39337-.00977-.27924.05188-.54199.04193-.82117-.00385-.10797-.03735-.2149-.05731-.32233.03827-.19366-.02814-.40308.09015-.58466.02008.0611.04749.12164.05786.18323.00354-.08234.00763-.16174.01141-.22449.08789.07452.0614.1189.0683.2348.02472.42462.0415.84912.06091,1.27356.02063.34723.0412.69458.06171,1.04187.07349.56519.14691,1.13031.2193,1.68768.09705.08423.18103.15698.25159.21826.07703.23303.03235.49963.30676.64136.12988-.05774.2644-.11761.38062-.16931.14551-.36853.05597-.71893.07281-1.08453.01263-.7218.02527-1.4436.03839-2.16565.07269.24066.14935.49115.26514.71417.17041-.15808.23029-.43835.21405-.66534.05499.03192.0863.06183.14752.04602.09033-.02332.00372-1.04651-.00519-1.12274-.95074-8.104-.92206-16.04858.25323-24.16541.125-.86298.17206-1.71521.03107-2.52582Zm-6.09314,6.51031c.15332.37964.11884.76166.11896,1.13892.00012.28101-.052.5625-.09021.84259-.00952.0694-.05536.13391-.12079.1947.0307-.7254.0614-1.45081.09204-2.17621Zm-.04309,3.10156c.10321.53058.10901,1.06567.04449,1.6026-.05518-.53198-.15326-1.06189-.04449-1.6026Zm.14453,5.13263c-.09283-.3927-.11255-.74567-.09424-1.10205-.09644-.78784-.09711-1.17761-.00104-1.39899.12543.01697.09027.12122.10931.19519.01849.12134.05042.24249.05267.36414.00513.27283-.00873.5459-.00684.81879.00153.22119.01483.44232.05804.66333-.03552.13837-.07098.27673-.11792.45959Zm3.37512-2.80652c.01172.15735.0235.2533.02502.34937.00458.2832-.00366.56689.00903.84973.01941.43152.05396.86237.07745,1.2937.00385.06995-.01581.14105-.03345.28204-.06067-.09131-.10107-.12439-.10345-.15991-.03217-.48053-.06458-.96118-.08508-1.44226-.01154-.27081-.00183-.54248-.00043-.81378.00055-.10608-.03223-.22021.1109-.35889Zm-.06146,3.76038c.12292.19409.06122.33435.07825.52515q-.15985-.21246-.07825-.52515Zm-.00427,1.6781c.04333.00238.08667.00476.12994.0072-.00037.20569.065.41461-.03784.65546-.0473-.06427-.10229-.10461-.10358-.14655-.00507-.17175.00623-.34406.01147-.51611Zm.23145,7.39111c-.03857-.0899-.06866-.12958-.07117-.17078-.01837-.30859-.02722-.6178-.04785-.92621-.00891-.13373-.03857-.26617-.05878-.39923.00879-.0473.01764-.0946.02582-.13837.08899-.03009.13037.01532.13495.08124.02191.31451.04169.62933.05298.94434.00488.13623.01001.26837.08856.38641-.03314.05927-.06628.11847-.12451.2226Z" fill="#884874"/>
      <path d="m58.88208,30.5397c-.00061.00208-.00092.0014-.00153.00336.00842.1759.01746.35187.02527.52777.00116-.17572-.00415-.35229-.02374-.53113Z" fill="#884874"/>
    </g>
    <path d="m22.02215,6.43093c.12494-.86298.17206-1.71521.03107-2.52576-.21411-1.23065-1.27325-2.34155-2.36469-2.771-.42914-.16882-.88043-.28644-1.32458-.40436-.29193-.07745-.58795-.14032-.87653-.22925-.53363-.16455-1.07764-.27917-1.62762-.35596-.29993-.04187-.6073-.01752-.8822.13885-.49066.27887-.85095.69183-1.10944,1.20166-.03296.06506-.06061.14062-.06421.21271-.01428.28589-.02466.57233-.0224.8584.00092.12048.03674.24066.0567.36096.02496.13422.04077.27112.07709.40234.09052.32526.33209.59814.4328.91528.20996.66125.08685,1.60693.0636,2.30066l-.07208,2.15094c-.07581,2.13062-.12085,4.26239-.12354,6.39441-.00641,5.07721.42365,10.1167.79138,15.17438.03632.5.07941.99976.10339,1.50024.01508.31378.03479.62378.10663.93207.04828.20679.06165.42175.08429.63373.05463.51178.13525,1.01562.32397,1.5022.13129.33844.21997.69263.35162,1.11682.23322.2453.60822.39075.948.49622.36664-.05054.6781-.09344.97504-.1344.17267-.22919.05469-.5304.2254-.74878.19934.06134.23688.19855.22699.35815-.00763.12311-.05072.24677.02319.38129.03888.00958.08557.02112.14587.03595.06982-.09271.13672-.18152.18951-.25159.03912-.27234.07446-.51831.10315-.71796.16888-.17029.29688.01239.42822-.02441.1554-.16077.01263-.41028.18927-.5553q.2677.08032.52417-.05347c.07239-.3429.14984-.70972.22919-1.08569.09436-.07092.19556-.14703.27411-.20612.08856-.14038.10284-.76929.10785-.90485.02087-.55981.27582-.18005.52625-.12,0,0,.41638-.2464.41437-.35419-.05054-2.67017-.18286-5.33563-.28033-8.00134-.10687-2.92096-.17194-5.84222-.04181-8.77008.13171-2.96246.41138-5.91803.8363-8.85278Zm-6.76227,5.97607c-.06714-.75946-.05511-1.51337.05817-2.30048.09906.66071.08777,1.40533-.05817,2.30048Zm5.12415,19.23773c-.03241-.07239-.06915-.12262-.0769-.17676-.07422-.51831-.20105-1.03101-.18121-1.55963-.00677-.02026-.01349-.04047-.02026-.06073-.01514-.24548-.03406-.49084-.04382-.73657-.00543-.13568.00446-.27191.00745-.4079q-.08331-.25183.02686-.45941c.1004.16156.06512.31561.05188.46637.125.49304.245.98065.17999,1.50244-.03442.27667.01227.5697.10724.8457.08069.23462.06793.34052-.05121.58649Zm.00842-16.34912c.15521.26678.08191.46558-.12524.76593-.07629-.30878-.14777-.5119.12524-.76593Zm-.01978-.26245c-.15955-.11945-.12427-.25751-.07166-.40485q.25146.21472.07166.40485Zm.383-2.41034c-.216-.21979-.28076-.38629-.07574-.57837.10388.16663.17694.32941.07574.57837Z" fill="#884874"/>
    <g>
      <path d="m47.46106,31.574c-.36157-5.0036-.40851-10.95563-.16986-14.09576.05371-.7074.10474-2.10571-.52216-2.65149-.81836-.71252-2.33966-.73108-3.36456-1.00562-1.03918-.27832-2.33673-.47253-2.9411.48877-.19049.30304-.23425.68994-.21375,1.09827-.63928,3.01196.55402,13.50525,1.26721,18.45526.02374.38177.04688.76361.07233,1.14532.02704.40564.19147.78473.24402,1.18488.00757.05743.05316.1106.07642.15637.15942.03064.30829.05927.44971.08649.18506-.19501.18536-.40833.13202-.63184-.02094-.08765-.11652-.79401-.03198-.90607.14392.13776.26538.90533.33215,1.06073.05969.13885.12561.27228.29169.3266.03497.01141.07422.01141.10687.01605.0589-.05609.11157-.1062.15918-.15155.06451.0177.11426.03143.172.04724.06641-.07391-.16846-.39709-.09222-.48199.19745.00146.42316-.17889.54358-.3161.1228-.14001.53418.25488.68103.21844.0481-.09705.09711-.19598.14209-.28693-.02606-.1701-.05017-.32721-.07288-.47552.04767-.11121.33649.17059.38434.05914.1123.02606-.0224-.33118.09631-.30365.14777-.13245.2868-.25708.40637-.36426.01324-.14539.01373-.31512.01978-.38123.17889-.08142.33405-.08527.4787-.15118.06763.04657.13446.09265.21643.14905.09723-.15039.17749-.2746.25146-.38898-.02295-.1897-.05011-.35913-.06232-.52954-.01508-.21118.04327.00885.19946-.15985.04492-.04852.07886.32623.16956.27386.04407.13342.08032-.59082.11523-.48779.02753.08112.04657.16687.08923.2406.02435.04193.08862.06378.14728.10291.10461-.21564.0611-.4118.06989-.59656.1814-.35712.18445-.3573.15649-.74408Zm-5.30164-.05231c-.00104-.01147.03467-.02588.07617-.05505.05896.25769.1156.50513.19464.85046-.11285-.08533-.18958-.1142-.19598-.15302-.03528-.21271-.05426-.4278-.07483-.6424Zm.19873,2.47382c-.02185-.21075-.15039-.40491-.05878-.64197.07971.02655.14178.04718.22845.07599-.08795.19714.03522.41443-.16968.56598Zm1.63599-9.16449c.06024.32764.23364.63666.20807,1.0119-.15656-.19556-.26508-.68457-.20807-1.0119Zm.22736,1.91656c-.07745-.1792-.14398-.35675-.08893-.55835.15137.0874.18475.27173.08893.55835Zm1.9895-1.86267c-.10968-.16199-.09161-.30615-.05701-.50983.06409.07507.11603.10907.12396.15039.02173.11292.03931.23145-.06696.35944Zm.12994-.87354c-.01685.02588-.04016.04852-.07269.06665-.01984.01147-.03967.02301-.06976.04041-.06873-.06262-.06799-.14081-.06238-.22046-.00421-.01349-.00659-.02734-.00702-.04138-.0108-.07568-.02155-.15131-.03229-.22699.00134-.02875.00269-.05762.00397-.08636-.00067-.0755-.00134-.15094-.00208-.22644-.00775-.12201-.01984-.24402-.0213-.36615-.00067-.05664.01935-.11346.03003-.17017.00098-.05615.00195-.11224.00348-.2005.05786.04266.09937.06018.11798.09003.03027.04858.04565.10535.06732.15863.05743.09735.04523.20428.04944.30896.01508.06061.03015.12115.04517.1817.0022.00049.00385.0014.00598.00189-.03375.16461-.06757.32928-.10132.4939.0152.06543.03033.13086.04547.19629Zm.52765,7.11133c-.00208.11926-.00415.23853-.00739.42468-.06848-.09247-.1181-.13104-.12561-.17572-.01392-.08319-.00342-.17004-.00305-.25531-.00818-.34808-.09552-.6947-.04346-1.07916.14441.26227.21106.69897.1795,1.08551Z" fill="#884874"/>
      <path d="m48.08563,6.37186c-.0222-.06387-.04191-.12056-.07091-.20396-.2202.04798-.43039.09378-.65279.14225-.17763-.19259-.12507-.39388-.00846-.61139-.11101-.23551-.13213-.51112-.28266-.72568-.39394-.12843-.76354-.24892-1.12422-.3665-.10799-.16069-.14351-.36595-.38234-.4012-.05808.0148-.11722.02988-.15816.04032-.2577-.21897-.22566-.57668-.5047-.74488-.08836.0256-.16061.04652-.19888.05762-.23293-.04595-.11187-.24384-.23367-.35215-.12241.05985-.24549.12001-.36554.1787-.10699-.04535.0008-.20471-.1453-.22899-.12658.10437-.25107.20699-.3783.31188-.11948-.08093-.22039-.14929-.31069-.21047-.18327.05851-.28045.17199-.37288.29154-.3057.39545-.59832.8007-.92336,1.18179-.21969.25755-.36219.52977-.38353.87402.07034.03117.14531.06441.23904.10595-.03637.06811-.05017.13666-.09442.17-.33513.25245-.44827.58796-.43551.97484.05295.10831.10621.21723.15101.30887-.10129.28702-.39987.28149-.5899.4181-.08055.18968-.05971.37663.02002.55714.36135.26013.38138.25964.78122.31164.17528.0228.33622-.01643.50346-.03655.11413-.01373.23035-.01256.33291-.01746.05246.08453.09069.14611.12647.20376.14109.05164.27263.09978.35019.12817.58112-.00678.93566-.36654,1.34316-.57203l.34754.00607c-.01323.09128-.02466.17022-.03759.25948.05693.02499.11437.0502.16117.07075.17594-.06047.33237-.1226.49477-.16498.04903-.01279.11457.02921.17255.0461l-.00338.19372c.05503.03293.125.07481.21123.12642.07175-.05787.13502-.1089.19829-.15993.76195-.51394,1.46133-1.09371,2.11054-1.71327-.01874-.08357-.03153-.14056-.04522-.20158.05199-.08119.10462-.1634.15885-.24811Z" fill="#884874"/>
    </g>
    <path d="m9.17682,3.82894c-.21411-1.23059-1.27325-2.34149-2.36469-2.77094-.42914-.16888-.88043-.2865-1.32458-.40436-.29193-.07751-.58795-.14032-.87653-.22931-.53363-.16449-1.07764-.27911-1.62762-.3559-.29993-.04187-.60736-.01752-.88226.13879-.4906.27893-.85089.69189-1.10938,1.20172-.03296.06506-.06067.14062-.06427.21271-.01422.28589-.0246.57227-.02234.8584.00092.12048.03674.2406.0567.3609.02496.13428.04071.27118.07709.40234.09052.32532.33209.59821.4328.91534.20996.66119.08685,1.60693.0636,2.30066l-.07208,2.15094c-.07587,2.13147-.12091,4.26404-.12354,6.39691-.00397,3.20636.15033,6.47491.29657,9.70367.14935,3.29639.17767,6.6098.7417,9.87036.0965.55792.26794,1.08313.53284,1.55585.23578.2583.53772.24731.82935.29944.05017-.11847.09259-.21869.11511-.27185.29938-.25085.58154-.03894.83514-.0553.15533-.15607.11359-.34485.16309-.5293.17188-.05444.32251-.15686.42401-.35712.0011-.06323.00146-.14972.00452-.23621.0022-.06195.00427-.12622.10065-.1377.1333.13623.2312.37323.5069.23669.09955-.1886.1748-.38031.1488-.60284-.01532-.13049-.0047-.13177.09277-.32538.10742.12823.09558.28027.10004.42664.00519.16882.03625.32239.21973.42401.06543-.00214.14911-.00488.216-.00708.11609-.13055.11896-.26678.12427-.40448.00574-.14868.01849-.29712.0321-.44525.00165-.01819.0274-.03418.04395-.05353.0946.0072.19098.01459.2724.02081.25476-.24463.0188-.51556.0871-.78363.2326-.17023.1051-.4729.20874-.70654.11261-.02191.21887-.0426.33295-.06482.021-.10065.03839-.18414.05579-.26752-.02612-.19702-.05231-.39404-.07849-.59106-.01624-.07159-.04083-.14252-.0473-.21503-.04163-.46735-.08087-.93488-.1167-1.40271-.00684-.08978.00507-.18109.03613-.27228.19305.49066.14526,1.0119.21918,1.51593.02875.3186.00708.64117.07678.95654.11938.17346.2608.29022.51013.19849.00226-.13141.01123-.25336.00537-.37469-.02875-.59515-.06177-1.19012-.0921-1.78522-.00317-.06195.00128-.12421.00208-.18634.00342-.25977.02509-.52142.00586-.77887-.34998-4.68427.10358-17.43176.5166-20.86383.08606-.71521.18079-1.42938.284-2.14233.12494-.86292.17206-1.71515.03107-2.52576Zm-6.35345,13.97205c-.00751.23541-.02039.47076-.02393.70618-.00598.39624-.00568.79254-.00964,1.18878-.00116.11694-.008.23376-.01294.37012-.04736-.00958-.06421-.01294-.07916-.01599-.07874-.25751-.08844-1.36737-.021-2.36511.01202-.01019.02979-.02521.05847-.04956-.00116-.02081-.00299-.05487-.00513-.0929.02484-.00464.04791-.00897.06732-.01263.01257.01367.02692.02197.02704.03052.00116.0802.00153.16046-.00104.2406Zm.61646-.91418c-.1264-.31659-.13434-.81964-.03687-1.33203.03638.41486.06775.7428.09155,1.07129.00415.05725-.02319.11676-.05469.26074Zm2.34216,8.22028c-.10931-.24475-.07477-.48975-.03558-.74017.04047.01129.07837.01373.08038.02356.0498.24023.04584.47931-.0448.71661Zm.26373-3.84491c-.06628-.21753-.12299-.43542-.09644-.66272.00452-.039.05414-.07275.09772-.1275.13324.28198.05066.53528-.00128.79022Zm1.26996,6.84351c-.05316.02399-.09521.04297-.15656.07068-.02557-.0965-.06458-.17731-.06586-.25867-.01111-.70959-.14667-1.41406-.10974-2.17358.10199.0614.16821.10126.21948.13208.12787.49463.18597,1.6283.11267,2.22949Z" fill="#884874"/>
    <path d="m34.92962,3.81362c-.21411-1.23059-1.27325-2.34149-2.36469-2.77094-.42914-.16888-.88043-.28644-1.32458-.40436-.29193-.07745-.58795-.14032-.87653-.22931-.53363-.16449-1.07764-.27911-1.62762-.35583-.29993-.04193-.6073-.01752-.8822.13873-.49066.27893-.85089.69189-1.10944,1.20166-.03296.06512-.06061.14069-.06421.21277-.01428.28589-.02466.57233-.0224.8584.00092.12048.03674.24066.0567.36096.02496.13422.04077.27112.07709.40234.09052.32532.33209.59814.4328.91528.20996.66125.08685,1.60693.0636,2.30066,0,.00006-.07208,2.15094-.07208,2.15094-.07587,2.13147-.12091,4.2641-.12354,6.39691-.00421,3.38513.09204,6.77264.35126,10.14899,0,0,.5719,5.44611,1.15442,7.86646.17773.7384.46173,2.67865,1.0592,3.16608.30597.24969.62939.30469,1.00751.23572.17584-.16241.37329-.34485.57758-.53351.15704-.01361.29407-.0766.36377-.24524.01526-.13641.0304-.27185.04614-.41205.09607-.04089.18329-.07794.27094-.11517.04492-.12036.08716-.23358.12683-.34003.21985-.00775.42578-.0022.60596-.18378.03595-.13397.07727-.28778.10309-.38403.16125-.13086.28149-.22839.39349-.31927.03308-.29816.06335-.57031.09302-.83801.05432-.08813.10583-.17181.15839-.2572l.00732-.41626c.06396-.21033.10553-.35278.15106-.49396.02643-.08197.05927-.16187.08923-.24268-.01251-.22217-.02649-.44427-.03705-.66656-.00812-.17084-.01202-.34186.03827-.52606.02411.05737.06189.11292.06952.17255.01569.12244.01355.24725.02179.37085.01477.2218.03186.4436.04797.66534.04498.0976.08997.19507.12671.27478.28156.05487.45099-.06238.59155-.25873.00403-.22839.01489-.45264.0105-.67657-.03345-1.77405-.40875-6.66168-.40875-6.66168-.32733-5.98987-.08881-11.93835.78632-17.98236.12494-.86298.17206-1.71521.03107-2.52582Zm-6.71368,8.29193c-.0929-.27344-.09302-.27454-.05212-.53448-.00024-.00031-.00055-.00067-.00079-.00098.00018-.00061.00018-.00128.00037-.00189-.10297-.11646-.12646-.26331-.15417-.41125-.07635-.40735-.04211-.81439-.00476-1.22449.05072.20093.13635.38873.13013.60443-.00391.13538.01965.27557.05402.40717.05566.21356.04236.41858-.02521.62415.00031.00037.00037.00085.00067.00122-.00012.00067-.00012.00098-.00024.00165.03827.0462.07654.09241.12286.14838-.02252.12268-.04449.2428-.07074.38611Zm2.62012,3.47052c.12762.39203.1546.88239.07806,1.0957-.13373-.2475-.16998-.64978-.07806-1.0957Zm.2149,2.96387c-.15704-.45331-.20459-1.13934-.12598-1.51953.13269.21667.16101.53107.12598,1.51953Zm2.20221-7.18628c.00031-.04724.00055-.09442.00079-.1416.1051-.21686.06378-.45068.07446-.67847.0155-.1355.02942-.27124.04858-.40619.00238-.0166.03271-.02899.06781-.05798.06726.14417.03925.29199.04059.43311.00153.16187-.01202.32379-.01642.48578-.00409.1496-.00464.29926-.00677.44885-.0639.24493-.03589.49426-.04144.74292-.00897.39911-.04279.79767-.06628,1.19647-.00659.11224-.0097.22491-.02271.33636-.00513.04376-.03308.08472-.0589.14679-.08142-.24878-.08582-1.26166-.01971-2.50604Zm-.05084,3.09265c.0899-.00482.09106.05927.08838.10071-.01337.20667-.03461.41278-.05304.61908-.05695-.24176-.05579-.48083-.03534-.71979Zm-.00549,1.36407c.01642.08826.08167,1.98029.06763,2.09833-.00378.03198-.02905.06134-.07404.15051-.08575-.41827-.07434-1.6521.00641-2.24884Zm-.12537,11.01941c-.03992-.00873-.08429-.01837-.12866-.02802-.03406-.44244-.09186-.8833-.06757-1.32947.00793-.14575-.00671-.29279-.01178-.46393.26874.29034.36847.987.21399,1.38599.09674.29993.15906.612.13293.93719-.04504-.16266-.09009-.32532-.13892-.50177Zm.31555,2.97498c-.0434-.02625-.07605-.03418-.08087-.05078-.02722-.09418-.06445-.1897-.06799-.28601-.02173-.58521-.03534-1.17078-.05164-1.75623.04437.00964.08875.01929.1286.02795.04889.17645.09387.33911.13892.50177.0235.47235.04694.9447.07104,1.43085-.04718.04529-.09552.09161-.13806.13245Z" fill="#884874"/>
    <path d="m74.09643,3.81668c-.21411-1.23059-1.27319-2.34155-2.36462-2.77094-.42914-.16888-.88043-.2865-1.32458-.40442-.29199-.07745-.58801-.14032-.87653-.22931-.53363-.16449-1.07764-.27905-1.62762-.35577-.29999-.04187-.60736-.01758-.88226.13867-.4906.27905-.85089.69196-1.10938,1.20172-.03302.06506-.06067.14062-.06427.21277-.01422.28583-.0246.57233-.0224.8584.00098.12042.0368.24066.05676.36096.0249.13422.04071.27118.07709.40228.09052.32538.33209.59827.4328.91534.20996.66119.08685,1.60693.0636,2.3006,0,.00012-.07208,2.151-.07208,2.151-.07587,2.13147-.12091,4.2641-.12354,6.39691-.00647,5.66193.24011,11.27228,1.11481,16.8717.1593,1.0199,1.1864,5.17841,2.2265,4.49432.10083-.06628.40686-.55243.35651-.53644.17303-.05493.32465-.1582.42682-.36011.0011-.06378.00146-.15112.00452-.23828.0022-.0625.00433-.12738.10138-.13892.13422.13745.23279.3764.51038.23877.10028-.19031.17609-.38367.14984-.60815-.01538-.13165-.0047-.13293.09344-.32825.10822.12939.09625.28278.10077.43036.00519.17035.03644.3252.22119.42773.06592-.00214.15021-.00494.21753-.00714.11688-.13171.11981-.2691.12512-.40808.00574-.1499.01868-.29962.03235-.4491.00171-.01831.02759-.03448.04431-.05396.09521.00726.19226.01471.27423.02094.35791-.34424.51617-1.0694.5694-1.84534.06238-.9104-.0199-1.89069-.0943-2.40747.10205.70862.20404,1.41718.30603,2.12579.04071.28278.30322.65747.51312.46301.08881-.08228-.02893-.82227-.03412-.96191-.01398-.37823-.02875-.75653-.04382-1.13477-.02899-.72565-.05957-1.45129-.08978-2.17694-.05603-1.34351-.64813-15.35999.67981-22.07019.16925-.85541.17206-1.71521.03101-2.52582Zm-6.80182,12.13495c-.00775.29095-.01971.58179-.02435.8728-.00781.48962-.01068.97937-.01697,1.46906-.00183.14447-.00812.28888-.01306.4574-.03705-.01141-.05023-.0155-.06195-.0191-.05975-.31763-.05865-1.68896.00214-2.92242.00952-.0127.02356-.03143.04626-.06171-.00073-.0257-.00189-.06775-.00323-.11469.01947-.00598.0376-.01154.05286-.01617.00977.01678.021.02692.021.03741.00031.09912-.00006.1983-.00269.29742Zm2.55438,3.65192c-.1272-.31934-.13519-.82678-.03705-1.34363.03662.41846.06818.74927.09216,1.08063.00421.05774-.02332.1178-.05511.263Zm2.13184,1.87939c.00458-.03937.0545-.07343.09839-.1286.13416.28442.05096.53992-.00134.79712-.06671-.21942-.12378-.43927-.09705-.66852Zm.20258,3.37701c-.04425-.30267-.11139-.60748-.05011-.99799.05884.10858.10303.15326.10486.19958.01019.26227.0105.52496.0127.78748.00006.00903-.01489.0235-.02496.02582-.01019.00226-.02313-.00751-.04248-.01489Zm.12286,1.4353c-.11005-.24695-.07532-.49408-.03583-.74664.04077.01135.07892.01385.08093.02374.05017.24231.04614.48352-.0451.7229Zm.41144,2.6109c-.02667.00867-.04779.0155-.07861.02545-.01312-.03528-.03296-.06482-.03381-.09454-.00732-.25879-.07727-.51605-.06049-.79297.05151.02264.0849.03735.11078.04871.06561.18073.0976.5943.06213.81335Z" fill="#884874"/>
    <g>
      <path d="m84.55062,8.5577c-.13481-.0841-.23087-.14403-.33109-.20656-.11166.0491-.21557.09478-.33591.1477-.08537-.03725-.17672-.07711-.28469-.12422-.19298.06397-.39858.14781-.63427.06082-.11955-.06438-.15625-.25157-.35126-.2559-.12401.0691-.25526.14224-.4033.22473l-.55937-.00976c-.15256.09704-.31052.19751-.48038.30555-.42632-.04907-.84688-.09748-1.26466-.14557-.05651-.09171-.10072-.16346-.1571-.25495.06913-.11511.13093-.23421.20948-.34235.04253-.05854.11628-.09584.1711-.14735.06406-.06018.15041-.11575.17923-.19009.13536-.34918.42352-.60723.59718-.93569-.03153-.14947-.06531-.29698-.15907-.43585-.17417-.25792-.17353-.54621-.01948-.80438.33632-.56359.68828-1.11934,1.0535-1.66648.12226-.18316.29744-.3369.46202-.49104.06914-.06475.17355-.09564.23575-.12821.23298.02479.31236.16603.37653.31582.07252.01482.13471.02752.18454.0377.16143-.07738.30867-.14797.45954-.22029.07451.05739.13296.10241.17757.13677.07752.22803-.1091.35416-.18674.54081.06843.04491.13644.08953.20149.13222.24355-.09047.38059-.33367.69166-.32365.15363.11927.34773.23804.54672.20564.24208.12435.44229.2272.65513.33653.21455.31064.43921.63593.66676.96538l-.00407.23337c.17494.11779.31478-.01183.46194-.01553.16572.02256.28922.13261.27018.26574-.0271.18954.08755.32506.11559.46007-.01517.31936-.20275.50988-.41959.69319-.45197.38209-.89137.77752-1.33972,1.16353-.22901.19716-.5058.32345-.78523.47232Z" fill="#884874"/>
      <path d="m86.52258,31.5679c-.02826-.3783-.06244-.75635-.10437-1.16876-.06702-.65894-.3089-10.84723-.15106-12.92358.05371-.70746.10474-2.10577-.52216-2.65161-.81836-.71246-2.33966-.73102-3.36456-1.00555-1.03918-.27838-2.33673-.47253-2.9411.48877-.19049.3031-.23431.68994-.21375,1.09821.039.7746-.17657,1.63556-.1817,2.42664-.00824,1.26886.05554,2.53845.13702,3.80432.17322,2.69177.41663,5.38556.69928,8.06805.1897,1.8009.68146,3.57568.86102,5.36816.03821.38171.18445.742.2334,1.12103.00745.05743.05237.11066.07526.15649.1571.03064.30383.05927.44324.08643.18237-.19525.18274-.40875.13025-.63245-.02063-.08777-.06854-.1781.01483-.29022.14185.13782.21521.28943.28101.44495.05872.13898.12366.27252.28735.32684.03442.01141.07312.01141.10535.01599.05804-.05615.10999-.10632.15692-.15173.0636.01776.11261.03143.16949.0473.06543-.0741.13123-.1485.20636-.23352.19464.0014.37555-.08594.49426-.22333.12109-.1402.27087-.08722.41565-.12372.04742-.09717.0957-.19623.14014-.28723-.0257-.17029-.04938-.32751-.07178-.47601.04706-.11127.0899-.21259.13702-.32416.11066.02606.21979.05176.33679.07935.14569-.13263.28278-.25745.40063-.36475.01306-.14551.02271-.25275.02869-.31891.17633-.0816.32013-.14813.46277-.21417.06665.04669.13251.09271.2132.14911.09595-.15057.17511-.27484.24799-.38934-.02252-.18988-.04926-.3595-.06128-.53009-.01483-.21136.00507-.42035.15906-.58923.04425-.04852.11816-.07281.20758-.12524.0434.13354.07635.23712.11078.34021.02704.08118.04584.16711.08789.24078.02393.04205.08728.06384.14508.10297.10321-.21582.06036-.41217.06909-.59717.17889-.35742.18335-.35773.15436-.74481Zm-6.00195-6.03424c-.02155-.211-.14813-.40527-.0578-.64252.07861.02649.13977.04712.22516.07593-.08673.19739.03461.41486-.16736.56659Zm1.22021,5.18591c-.02155-.211-.14813-.40527-.0578-.64258.07861.02655.13977.04718.22516.07599-.08673.19739.03461.41486-.16736.56659Zm3.4707-4.63806c.05927.32788.2301.63721.20483,1.01282-.1543-.19574-.26111-.68518-.20483-1.01282Zm.39313,4.1665c-.0675-.09253-.11633-.1311-.12372-.17584-.0094-.05719-.00427-.11652-.00201-.17542-.01221-.00055-.02435-.0011-.03656-.00171-.008-.34839-.09393-.69531-.04254-1.08014.13263.24469.19513.64032.17816,1.00647.01135.00055.02271.00104.03412.00159-.00208.11938-.00421.23871-.00745.42505Z" fill="#884874"/>
    </g>
  </g>
  <g>
    <path d="m16.2914,50.53498c0,.05033-.03577.08627-.08627.08627h-.60322c-.04314,0-.08627-.03595-.08627-.08627v-3.40521l-1.32919,2.23419c-.03577.06471-.0719.08627-.14379.08627h-.45241c-.07891,0-.10767-.02157-.14379-.08627l-1.3576-2.23419v3.40521c0,.05033-.03612.08627-.08627.08627h-.60357c-.04314,0-.08627-.03595-.08627-.08627v-4.71266c0-.05033.04314-.09346.08627-.09346h.63934c.0719,0,.11503.00719.15817.09346l1.60204,2.70116,1.60204-2.70116c.05015-.08627.09329-.09346.16518-.09346h.63934c.0505,0,.08627.04314.08627.09346v4.71266Z" fill="#884874"/>
    <path d="m18.89051,45.72886c.04314,0,.08627.04314.08627.09346v4.71266c0,.05033-.04314.08627-.08627.08627h-.63233c-.04314,0-.08627-.03595-.08627-.08627v-4.71266c0-.05033.04314-.09346.08627-.09346h.63233Z" fill="#884874"/>
    <path d="m21.57694,45.72886c.04314,0,.08627.04314.08627.09346v4.08769h2.29153c.0505,0,.08627.04314.08627.08627v.53869c0,.05033-.03577.08627-.08627.08627h-3.01014c-.04314,0-.08627-.03595-.08627-.08627v-4.71266c0-.05033.04314-.09346.08627-.09346h.63233Z" fill="#884874"/>
    <path d="m26.30275,45.72886c.04314,0,.08627.04314.08627.09346v4.08769h2.29153c.0505,0,.08627.04314.08627.08627v.53869c0,.05033-.03577.08627-.08627.08627h-3.01014c-.04314,0-.08627-.03595-.08627-.08627v-4.71266c0-.05033.04314-.09346.08627-.09346h.63233Z" fill="#884874"/>
    <path d="m31.02891,45.72886c.04314,0,.08627.04314.08627.09346v4.71266c0,.05033-.04314.08627-.08627.08627h-.63233c-.04314,0-.08627-.03595-.08627-.08627v-4.71266c0-.05033.04314-.09346.08627-.09346h.63233Z" fill="#884874"/>
    <path d="m36.05668,50.52779c-.02174.06471-.06488.09346-.14379.09346h-.61795c-.05752,0-.07891-.02876-.07891-.06471,0-.02157.00701-.04314.01438-.07172l1.76722-4.68407c.02174-.06471.06453-.09346.13643-.09346h.66109c.07891,0,.11503.02876.14379.09346l1.74548,4.68407c.00736.02139.02174.05015.02174.07172,0,.03595-.02174.06471-.08627.06471h-.63233c-.07891,0-.12205-.02876-.14344-.09346l-.36649-1.00566h-2.04744l-.37351,1.00566Zm1.40073-3.84342l-.82627,2.19123h1.64518l-.81891-2.19123Z" fill="#884874"/>
    <path d="m43.85715,48.74619l1.19978,1.72426c.04314.07172.05752.1508-.04314.1508h-.69686c-.07891,0-.12941-.01438-.17255-.09346l-1.15664-1.70971h-1.07738v1.7169c0,.05033-.04314.08627-.08627.08627h-.63233c-.04314,0-.08627-.03595-.08627-.08627v-4.71266c0-.05033.04314-.09346.08627-.09346h2.01868c.47416,0,.8908.0719,1.21416.30179.35913.25865.57481.68967.57481,1.24291,0,.49555-.19394.89799-.56043,1.17803-.18658.15098-.37351.23708-.58183.2946Zm-1.94679-2.33485v1.73145h1.16365c.30897,0,.55307-.02876.75438-.15098.20832-.12205.35211-.35194.35211-.71106,0-.35211-.12941-.582-.33773-.71124-.19394-.12941-.43839-.15817-.70422-.15817h-1.22818Z" fill="#884874"/>
    <path d="m46.45661,48.17155c0-1.40091,1.14963-2.50722,2.58648-2.50722.68949,0,1.14927.17956,1.48701.36632.05752.02876.0719.07908.04314.12205l-.25146.52449c-.02174.05752-.0719.05752-.11503.03595-.30161-.15799-.66074-.32335-1.1854-.32335-.93394,0-1.73145.79032-1.73145,1.78178,0,1.06318.78313,1.79598,1.73882,1.79598.5173,0,.90518-.15799,1.20679-.33054.05015-.02876.08627-.02157.11503.02876l.25146.53886c.02139.05033.01438.0861-.04314.11486-.37351.20113-.83329.37368-1.53751.37368-1.51577,0-2.56474-.98427-2.56474-2.5216Z" fill="#884874"/>
    <path d="m56.33364,45.72886c.05015,0,.08627.04314.08627.09346v4.71266c0,.05033-.03612.08627-.08627.08627h-.62496c-.0505,0-.09329-.03595-.09329-.08627v-2.01149h-2.57912v2.01149c0,.05033-.04314.08627-.08627.08627h-.63233c-.04314,0-.08627-.03595-.08627-.08627v-4.71266c0-.05033.04314-.09346.08627-.09346h.63233c.04314,0,.08627.04314.08627.09346v1.98273h2.57912v-1.98273c0-.05033.04279-.09346.09329-.09346h.62496Z" fill="#884874"/>
    <path d="m59.01902,45.72886c.04314,0,.08627.04314.08627.09346v4.71266c0,.05033-.04314.08627-.08627.08627h-.63233c-.04314,0-.08627-.03595-.08627-.08627v-4.71266c0-.05033.04314-.09346.08627-.09346h.63233Z" fill="#884874"/>
    <path d="m63.27873,50.54936c-.02876.0719-.06453.09346-.14379.09346h-.66074c-.0719,0-.10802-.02157-.13678-.09346l-1.83175-4.69109c-.02876-.0719-.01438-.12941.0719-.12941h.66074c.07926,0,.1224.03595.14379.10065l1.42248,3.80748h.01438l1.44387-3.80748c.02876-.06471.0719-.10065.14379-.10065h.6681c.06453,0,.09329.05033.0719.12941l-1.86788,4.69109Z" fill="#884874"/>
    <path d="m70.04497,45.72886c.05015,0,.08627.04314.08627.09346v.53168c0,.05015-.03612.0861-.08627.0861h-2.70116v1.37215h2.32766c.05015,0,.08592.03595.08592.08627v.53886c0,.04296-.03577.0861-.08592.0861h-2.32766v1.38653h2.70116c.05015,0,.08627.04314.08627.08627v.53869c0,.05033-.03612.08627-.08627.08627h-3.41977c-.04314,0-.08627-.03595-.08627-.08627v-4.71266c0-.05033.04314-.09346.08627-.09346h3.41977Z" fill="#884874"/>
    <path d="m71.55933,50.23337c-.05015-.02876-.06453-.0719-.03577-.12222l.25146-.5315c.02139-.04314.05752-.06471.11503-.02876.31599.19394.74701.45259,1.3576.45259.30196,0,.53168-.0719.68248-.18675.18693-.1366.26584-.33773.26584-.55324,0-.33054-.26584-.5173-.61795-.65372-.40928-.16536-.8908-.24427-1.35058-.50292-.3949-.2227-.67512-.53168-.67512-1.08474,0-.40244.15817-.74719.46679-.98427.30196-.23708.74736-.37351,1.3362-.37351.6681,0,1.17102.17956,1.49437.35913.0505.02876.05752.0719.03612.12205l-.25146.52449c-.02876.05033-.0719.06471-.1224.03595-.34475-.20113-.7684-.34475-1.19943-.34475-.32335,0-.56043.07172-.70422.19394-.13643.10767-.20832.25146-.20832.43102,0,.31599.26584.48135.6681.61777.45978.16518.97708.24427,1.40108.5173.33037.20832.60322.54588.60322,1.07755,0,.48135-.20096.85485-.53168,1.1135-.31599.25146-.7684.38087-1.2857.38087-.77612,0-1.3362-.23708-1.69568-.45978Z" fill="#884874"/>
    <path d="m18.45212,56.70185c0-1.40091,1.14963-2.50722,2.58648-2.50722.68949,0,1.14927.17956,1.48701.36632.05752.02876.0719.07908.04314.12205l-.25146.52449c-.02174.05752-.0719.05752-.11503.03595-.30161-.15799-.66074-.32335-1.1854-.32335-.93394,0-1.7311.79032-1.7311,1.78178,0,1.06318.78278,1.79598,1.73847,1.79598.5173,0,.90518-.15799,1.20679-.33054.05015-.02876.08627-.02157.11503.02876l.25146.53886c.02139.05033.01438.0861-.04314.11486-.37351.20113-.83329.37368-1.53751.37368-1.51577,0-2.56474-.98427-2.56474-2.5216Z" fill="#884874"/>
    <path d="m26.4041,59.22345c-1.4081,0-2.58648-1.05616-2.58648-2.50722,0-1.45842,1.17838-2.5216,2.58648-2.5216,1.40073,0,2.58613,1.06318,2.58613,2.5216,0,1.45825-1.1854,2.50722-2.58613,2.50722Zm0-4.27462c-.98444,0-1.73882.78313-1.73882,1.7674,0,.98409.75438,1.76003,1.73882,1.76003.98409,0,1.7311-.77594,1.7311-1.76003,0-.98427-.74701-1.7674-1.7311-1.7674Z" fill="#884874"/>
    <path d="m31.3954,54.25916c.04314,0,.08627.04314.08627.09346v4.08769h2.29153c.0505,0,.08627.04314.08627.08627v.53869c0,.05033-.03577.08627-.08627.08627h-3.01014c-.04314,0-.08627-.03595-.08627-.08627v-4.71266c0-.05033.04314-.09346.08627-.09346h.63233Z" fill="#884874"/>
    <path d="m36.12156,54.25916c.04314,0,.08627.04314.08627.09346v4.08769h2.29153c.0505,0,.08627.04314.08627.08627v.53869c0,.05033-.03577.08627-.08627.08627h-3.01014c-.04314,0-.08627-.03595-.08627-.08627v-4.71266c0-.05033.04314-.09346.08627-.09346h.63233Z" fill="#884874"/>
    <path d="m43.6348,54.25916c.05015,0,.08627.04314.08627.09346v.53168c0,.05015-.03612.0861-.08627.0861h-2.70116v1.37215h2.32766c.05015,0,.08592.03595.08592.08627v.53886c0,.04296-.03577.0861-.08592.0861h-2.32766v1.38653h2.70116c.05015,0,.08627.04314.08627.08627v.53869c0,.05033-.03612.08627-.08627.08627h-3.41977c-.04314,0-.08627-.03595-.08627-.08627v-4.71266c0-.05033.04314-.09346.08627-.09346h3.41977Z" fill="#884874"/>
    <path d="m44.98433,56.70185c0-1.40091,1.14963-2.50722,2.58648-2.50722.68949,0,1.14927.17956,1.48701.36632.05752.02876.0719.07908.04314.12205l-.25146.52449c-.02174.05752-.0719.05752-.11503.03595-.30161-.15799-.66074-.32335-1.1854-.32335-.93394,0-1.73145.79032-1.73145,1.78178,0,1.06318.78313,1.79598,1.73882,1.79598.5173,0,.90518-.15799,1.20679-.33054.05015-.02876.08627-.02157.11503.02876l.25146.53886c.02139.05033.01438.0861-.04314.11486-.37351.20113-.83329.37368-1.53751.37368-1.51577,0-2.56474-.98427-2.56474-2.5216Z" fill="#884874"/>
    <path d="m54.40158,54.25916c.05015,0,.08627.04314.08627.09346v.53168c0,.05015-.03612.0861-.08627.0861h-1.55189v4.09488c0,.05033-.04314.08627-.09329.08627h-.62496c-.0505,0-.08627-.03595-.08627-.08627v-4.09488h-1.5589c-.0505,0-.08627-.03595-.08627-.0861v-.53168c0-.05033.03577-.09346.08627-.09346h3.91532Z" fill="#884874"/>
    <path d="m56.62016,54.25916c.04314,0,.08627.04314.08627.09346v4.71266c0,.05033-.04314.08627-.08627.08627h-.63233c-.04314,0-.08627-.03595-.08627-.08627v-4.71266c0-.05033.04314-.09346.08627-.09346h.63233Z" fill="#884874"/>
    <path d="m60.87988,59.07966c-.02876.0719-.06453.09346-.14379.09346h-.66074c-.0719,0-.10802-.02157-.13678-.09346l-1.83175-4.69109c-.02876-.0719-.01438-.12941.0719-.12941h.66074c.07926,0,.1224.03595.14379.10065l1.42248,3.80748h.01438l1.44387-3.80748c.02876-.06471.0719-.10065.14379-.10065h.6681c.06453,0,.09329.05033.0719.12941l-1.86788,4.69109Z" fill="#884874"/>
    <path d="m67.64611,54.25916c.05015,0,.08627.04314.08627.09346v.53168c0,.05015-.03612.0861-.08627.0861h-2.70116v1.37215h2.32766c.05015,0,.08592.03595.08592.08627v.53886c0,.04296-.03577.0861-.08592.0861h-2.32766v1.38653h2.70116c.05015,0,.08627.04314.08627.08627v.53869c0,.05033-.03612.08627-.08627.08627h-3.41977c-.04314,0-.08627-.03595-.08627-.08627v-4.71266c0-.05033.04314-.09346.08627-.09346h3.41977Z" fill="#884874"/>
  </g>
</svg>
