<?xml version="1.0" encoding="UTF-8" standalone="no"?>
<svg
   version="1.0"
   width="410.000000pt"
   height="188.000000pt"
   viewBox="0 0 410.000000 188.000000"
   preserveAspectRatio="xMidYMid meet"
   id="svg212"
   sodipodi:docname="logo_ica.svg"
   inkscape:version="1.1.2 (0a00cf5339, 2022-02-04)"
   xmlns:inkscape="http://www.inkscape.org/namespaces/inkscape"
   xmlns:sodipodi="http://sodipodi.sourceforge.net/DTD/sodipodi-0.dtd"
   xmlns="http://www.w3.org/2000/svg"
   xmlns:svg="http://www.w3.org/2000/svg">
  <defs
     id="defs216" />
  <sodipodi:namedview
     id="namedview214"
     pagecolor="#ffffff"
     bordercolor="#666666"
     borderopacity="1.0"
     inkscape:pageshadow="2"
     inkscape:pageopacity="0.0"
     inkscape:pagecheckerboard="0"
     inkscape:document-units="pt"
     showgrid="false"
     inkscape:zoom="2.4054878"
     inkscape:cx="6448.1724"
     inkscape:cy="-193.93156"
     inkscape:window-width="1880"
     inkscape:window-height="1049"
     inkscape:window-x="40"
     inkscape:window-y="0"
     inkscape:window-maximized="1"
     inkscape:current-layer="svg212" />
  <g
     transform="translate(0.000000,188.000000) scale(0.100000,-0.100000)"
     fill="#000000"
     stroke="none"
     id="g210"
     style="fill:#1b448a;fill-opacity:1">
    <path
       d="M485 1837 c-95 -45 -138 -127 -116 -221 15 -64 52 -112 107 -139 l44 -21 0 -208 0 -208 30 0 c91 0 138 -88 75 -140 -23 -19 -107 -15 -188 10 -84 26 -176 94 -223 164 -19 30 -44 56 -55 59 -19 5 -27 37 -9 37 6 0 10 -5 10 -12 0 -6 2 -9 5 -6 14 13 -9 38 -35 38 -16 0 -32 5 -35 10 -3 6 -2 10 3 10 5 0 7 12 5 28 l-4 27 20 -24 21 -23 0 31 c0 19 -6 34 -15 37 -14 6 -14 8 1 18 20 15 16 71 -6 71 -8 0 -17 3 -20 6 -3 3 -14 11 -25 17 -20 11 -20 11 2 12 12 0 32 -4 45 -9 20 -7 23 -5 25 16 1 18 -2 22 -10 14 -13 -13 -57 -15 -57 -2 0 5 -9 7 -20 4 -11 -3 -17 -9 -14 -14 3 -5 -5 -13 -17 -18 -21 -7 -20 -9 14 -15 25 -5 37 -12 37 -23 0 -13 -3 -14 -12 -5 -7 7 -22 12 -35 12 -20 0 -23 -5 -23 -40 0 -26 5 -40 13 -40 7 0 20 -9 30 -20 16 -19 16 -20 -3 -20 -11 0 -20 5 -20 10 0 6 -4 10 -10 10 -5 0 -10 -7 -10 -15 0 -10 10 -15 30 -15 17 0 30 -4 30 -10 0 -5 -11 -10 -25 -10 -38 0 -30 -14 17 -30 31 -11 44 -21 46 -37 4 -26 -13 -31 -22 -7 -4 10 -12 14 -23 10 -9 -4 -20 -1 -26 6 -5 8 -6 2 -2 -17 4 -16 11 -31 16 -33 5 -2 9 -11 9 -20 1 -9 9 -33 20 -52 16 -29 19 -31 20 -13 0 34 20 39 20 5 0 -22 6 -32 23 -37 19 -6 19 -8 5 -12 -10 -2 -18 -8 -18 -13 0 -18 132 -129 182 -154 69 -34 198 -66 262 -66 88 1 169 48 207 122 44 86 5 208 -82 256 l-49 27 0 208 0 207 -34 0 c-18 0 -48 10 -67 23 -29 19 -34 29 -34 61 0 31 6 43 27 59 25 19 33 20 98 10 130 -20 267 -107 322 -204 11 -20 29 -40 39 -42 11 -3 19 -13 19 -24 -1 -17 -2 -17 -17 2 -14 18 -15 18 -9 2 3 -10 6 -23 6 -28 0 -5 16 -9 35 -9 34 0 35 -1 29 -27 -9 -38 -12 -40 -29 -17 -14 18 -14 18 -15 -7 0 -15 7 -32 15 -39 13 -11 13 -14 -1 -27 -8 -9 -14 -27 -12 -42 2 -20 8 -25 26 -24 12 2 22 -1 22 -6 0 -5 10 -12 23 -16 21 -8 21 -8 -5 -12 -22 -3 -25 -7 -16 -17 16 -16 48 -9 48 11 0 10 6 13 16 9 10 -4 14 -1 12 6 -3 7 -17 15 -33 18 -16 3 -31 12 -33 20 -4 13 -3 13 11 2 28 -23 57 -6 57 34 0 24 -5 34 -15 34 -8 0 -15 6 -15 14 0 8 -8 17 -17 19 -15 4 -14 5 3 6 11 0 25 -4 32 -11 9 -9 12 -8 12 4 0 10 -12 19 -32 24 l-33 8 35 6 35 6 -48 22 c-50 23 -67 46 -48 65 8 8 11 7 11 -5 0 -23 18 -32 35 -18 12 10 15 9 16 -6 0 -13 2 -15 6 -5 3 8 -1 28 -9 45 -8 17 -23 49 -34 71 -15 35 -18 37 -22 18 -5 -31 -22 -29 -22 2 0 16 -6 25 -15 25 -18 0 -19 12 -3 29 11 10 3 22 -40 62 -103 95 -225 148 -362 155 -75 5 -91 2 -135 -19z"
       id="path2"
       style="fill:#1b448a;fill-opacity:1" />
    <path
       d="M2313 1850 c-224 -41 -387 -209 -430 -443 -34 -192 20 -382 147 -507 100 -100 235 -150 404 -150 150 0 266 38 364 118 l44 35 -67 67 -67 67 -49 -32 c-73 -50 -141 -69 -234 -68 -150 2 -264 71 -321 195 -26 57 -29 73 -29 168 0 93 3 112 27 162 37 80 96 140 171 174 55 26 73 29 162 29 107 0 161 -17 230 -69 l30 -23 68 63 68 63 -52 41 c-61 48 -92 65 -168 92 -65 23 -219 32 -298 18z"
       id="path4"
       style="fill:#1b448a;fill-opacity:1" />
    <path
       d="M1500 1305 l0 -535 100 0 100 0 0 535 0 535 -100 0 -100 0 0 -535z"
       id="path6"
       style="fill:#1b448a;fill-opacity:1" />
    <path
       d="M3367 1808 c-26 -60 -449 -1003 -459 -1020 -8 -17 0 -18 100 -18 l109 0 46 100 46 100 282 -2 283 -3 43 -95 42 -95 110 -3 110 -3 -116 258 c-64 142 -171 382 -239 533 l-123 275 -110 3 -110 3 -14 -33z m225 -421 l96 -222 -99 -3 c-54 -1 -144 -1 -198 0 l-99 3 96 222 c54 123 99 223 102 223 3 0 49 -100 102 -223z"
       id="path8"
       style="fill:#1b448a;fill-opacity:1" />
    <path
       d="M330 1795 c0 -8 7 -15 15 -15 8 0 15 7 15 15 0 8 -7 15 -15 15 -8 0 -15 -7 -15 -15z"
       id="path10"
       style="fill:#1b448a;fill-opacity:1" />
    <path
       d="M290 1765 c0 -8 7 -15 15 -15 8 0 15 7 15 15 0 8 -7 15 -15 15 -8 0 -15 -7 -15 -15z"
       id="path12"
       style="fill:#1b448a;fill-opacity:1" />
    <path
       d="M240 1755 c0 -8 7 -15 15 -15 8 0 15 7 15 15 0 8 -7 15 -15 15 -8 0 -15 -7 -15 -15z"
       id="path14"
       style="fill:#1b448a;fill-opacity:1" />
    <path
       d="M180 1705 c0 -8 7 -15 15 -15 8 0 15 7 15 15 0 8 -7 15 -15 15 -8 0 -15 -7 -15 -15z"
       id="path16"
       style="fill:#1b448a;fill-opacity:1" />
    <path
       d="M220 1705 c0 -8 7 -15 15 -15 8 0 15 7 15 15 0 8 -7 15 -15 15 -8 0 -15 -7 -15 -15z"
       id="path18"
       style="fill:#1b448a;fill-opacity:1" />
    <path
       d="M260 1705 c0 -8 7 -15 15 -15 8 0 15 7 15 15 0 8 -7 15 -15 15 -8 0 -15 -7 -15 -15z"
       id="path20"
       style="fill:#1b448a;fill-opacity:1" />
    <path
       d="M150 1665 c0 -8 7 -15 15 -15 8 0 15 7 15 15 0 8 -7 15 -15 15 -8 0 -15 -7 -15 -15z"
       id="path22"
       style="fill:#1b448a;fill-opacity:1" />
    <path
       d="M190 1665 c0 -8 7 -15 15 -15 8 0 15 7 15 15 0 8 -7 15 -15 15 -8 0 -15 -7 -15 -15z"
       id="path24"
       style="fill:#1b448a;fill-opacity:1" />
    <path
       d="M230 1665 c0 -8 7 -15 15 -15 8 0 15 7 15 15 0 8 -7 15 -15 15 -8 0 -15 -7 -15 -15z"
       id="path26"
       style="fill:#1b448a;fill-opacity:1" />
    <path
       d="M200 1625 c0 -8 7 -15 15 -15 8 0 15 7 15 15 0 8 -7 15 -15 15 -8 0 -15 -7 -15 -15z"
       id="path28"
       style="fill:#1b448a;fill-opacity:1" />
    <path
       d="M150 1615 c6 -7 9 -19 7 -26 -2 -8 -2 -11 0 -6 8 13 21 8 26 -10 3 -10 5 -2 6 18 1 33 -2 37 -24 37 -19 0 -23 -4 -15 -13z"
       id="path30"
       style="fill:#1b448a;fill-opacity:1" />
    <path
       d="M124 1594 c-4 -10 -9 -22 -11 -26 -2 -5 0 -8 6 -8 11 0 26 39 17 47 -3 3 -9 -3 -12 -13z"
       id="path32"
       style="fill:#1b448a;fill-opacity:1" />
    <path
       d="M74 1549 c-15 -29 -15 -31 0 -26 10 4 16 1 16 -8 0 -7 -8 -16 -17 -18 -14 -4 -13 -5 4 -6 12 0 25 4 28 9 5 8 12 7 23 -2 10 -8 13 -9 9 -1 -12 19 15 27 29 8 11 -15 13 -14 12 14 -1 35 -16 39 -52 16 -21 -14 -24 -14 -29 0 -4 8 -4 22 -1 30 11 27 -5 15 -22 -16z"
       id="path34"
       style="fill:#1b448a;fill-opacity:1" />
    <path
       d="M95 1451 c-7 -12 12 -24 25 -16 11 7 4 25 -10 25 -5 0 -11 -4 -15 -9z"
       id="path36"
       style="fill:#1b448a;fill-opacity:1" />
    <path
       d="M741 1353 c-25 -17 -27 -46 -4 -68 28 -28 123 0 123 36 0 30 -88 54 -119 32z"
       id="path38"
       style="fill:#1b448a;fill-opacity:1" />
    <path
       d="M334 1326 c-49 -22 -52 -41 -9 -63 45 -23 74 -24 95 -3 24 24 25 43 4 64 -19 19 -49 20 -90 2z"
       id="path40"
       style="fill:#1b448a;fill-opacity:1" />
    <path
       d="M1019 1211 c9 -6 10 -11 2 -15 -6 -4 -11 -12 -11 -18 0 -6 9 -3 20 7 16 14 17 20 8 27 -7 4 -17 8 -23 8 -5 0 -4 -4 4 -9z"
       id="path42"
       style="fill:#1b448a;fill-opacity:1" />
    <path
       d="M1040 1165 c0 -9 5 -15 11 -13 6 2 11 8 11 13 0 5 -5 11 -11 13 -6 2 -11 -4 -11 -13z"
       id="path44"
       style="fill:#1b448a;fill-opacity:1" />
    <path
       d="M1061 1114 c-16 -12 -21 -12 -21 -2 0 8 -5 6 -11 -4 -12 -22 -29 -23 -29 -3 0 8 -4 15 -9 15 -5 0 -8 -12 -7 -27 4 -34 32 -42 51 -16 15 20 30 11 38 -22 4 -18 5 -18 14 5 8 19 7 26 -3 28 -22 5 -16 20 9 24 18 3 19 4 6 10 -9 3 -26 0 -38 -8z"
       id="path46"
       style="fill:#1b448a;fill-opacity:1" />
    <path
       d="M1042 1058 c-5 -7 -13 -24 -17 -37 -11 -35 11 -18 23 19 12 32 10 37 -6 18z"
       id="path48"
       style="fill:#1b448a;fill-opacity:1" />
    <path
       d="M971 1034 c1 -24 17 -65 18 -44 1 11 4 11 13 2 17 -17 33 -15 18 3 -7 8 -10 22 -6 30 3 8 1 15 -4 15 -6 0 -10 -6 -10 -12 0 -8 -7 -5 -15 6 -15 20 -15 20 -14 0z"
       id="path50"
       style="fill:#1b448a;fill-opacity:1" />
    <path
       d="M937 994 c-9 -10 2 -24 19 -24 8 0 14 7 14 15 0 15 -21 21 -33 9z"
       id="path52"
       style="fill:#1b448a;fill-opacity:1" />
    <path
       d="M900 945 c0 -8 7 -15 15 -15 8 0 15 7 15 15 0 8 -7 15 -15 15 -8 0 -15 -7 -15 -15z"
       id="path54"
       style="fill:#1b448a;fill-opacity:1" />
    <path
       d="M940 945 c0 -8 7 -15 15 -15 8 0 15 7 15 15 0 8 -7 15 -15 15 -8 0 -15 -7 -15 -15z"
       id="path56"
       style="fill:#1b448a;fill-opacity:1" />
    <path
       d="M987 954 c-9 -10 2 -24 19 -24 8 0 14 7 14 15 0 15 -21 21 -33 9z"
       id="path58"
       style="fill:#1b448a;fill-opacity:1" />
    <path
       d="M870 905 c0 -8 7 -15 15 -15 8 0 15 7 15 15 0 8 -7 15 -15 15 -8 0 -15 -7 -15 -15z"
       id="path60"
       style="fill:#1b448a;fill-opacity:1" />
    <path
       d="M910 905 c0 -8 7 -15 15 -15 8 0 15 7 15 15 0 8 -7 15 -15 15 -8 0 -15 -7 -15 -15z"
       id="path62"
       style="fill:#1b448a;fill-opacity:1" />
    <path
       d="M950 905 c0 -8 7 -15 15 -15 8 0 15 7 15 15 0 8 -7 15 -15 15 -8 0 -15 -7 -15 -15z"
       id="path64"
       style="fill:#1b448a;fill-opacity:1" />
    <path
       d="M890 854 c0 -17 22 -14 28 4 2 7 -3 12 -12 12 -9 0 -16 -7 -16 -16z"
       id="path66"
       style="fill:#1b448a;fill-opacity:1" />
    <path
       d="M840 845 c0 -8 7 -15 15 -15 8 0 15 7 15 15 0 8 -7 15 -15 15 -8 0 -15 -7 -15 -15z"
       id="path68"
       style="fill:#1b448a;fill-opacity:1" />
    <path
       d="M800 815 c0 -8 7 -15 15 -15 8 0 15 7 15 15 0 8 -7 15 -15 15 -8 0 -15 -7 -15 -15z"
       id="path70"
       style="fill:#1b448a;fill-opacity:1" />
    <path
       d="M30 400 c0 -73 3 -90 15 -90 12 0 15 17 15 90 0 73 -3 90 -15 90 -12 0 -15 -17 -15 -90z"
       id="path72"
       style="fill:#1b448a;fill-opacity:1" />
    <path
       d="M1040 475 c0 -8 7 -15 15 -15 8 0 15 7 15 15 0 8 -7 15 -15 15 -8 0 -15 -7 -15 -15z"
       id="path74"
       style="fill:#1b448a;fill-opacity:1" />
    <path
       d="M1560 400 c0 -73 3 -90 15 -90 12 0 15 17 15 90 0 73 -3 90 -15 90 -12 0 -15 -17 -15 -90z"
       id="path76"
       style="fill:#1b448a;fill-opacity:1" />
    <path
       d="M1727 479 c-26 -15 -46 -68 -40 -102 3 -15 17 -36 31 -47 29 -23 94 -27 111 -7 16 20 5 26 -38 20 -45 -6 -71 15 -71 57 0 43 26 63 72 57 43 -6 59 7 29 22 -25 14 -71 13 -94 0z"
       id="path78"
       style="fill:#1b448a;fill-opacity:1" />
    <path
       d="M2467 484 c-13 -13 -7 -24 14 -24 11 0 19 5 17 12 -5 14 -22 21 -31 12z"
       id="path80"
       style="fill:#1b448a;fill-opacity:1" />
    <path
       d="M2530 400 c0 -73 3 -90 15 -90 12 0 15 17 15 90 0 73 -3 90 -15 90 -12 0 -15 -17 -15 -90z"
       id="path82"
       style="fill:#1b448a;fill-opacity:1" />
    <path
       d="M3070 445 c-66 -150 -61 -135 -40 -135 10 0 22 9 25 20 5 16 15 20 50 20 34 0 47 -5 55 -20 10 -18 40 -29 40 -14 0 3 -17 43 -37 90 -44 101 -63 109 -93 39z m58 -35 c11 -29 10 -30 -19 -30 -16 0 -29 2 -29 4 0 1 5 17 11 34 13 37 23 34 37 -8z"
       id="path84"
       style="fill:#1b448a;fill-opacity:1" />
    <path
       d="M3470 400 c0 -73 3 -90 15 -90 11 0 15 11 15 38 0 46 12 65 36 60 15 -2 20 -14 22 -51 2 -33 7 -47 18 -47 10 0 14 13 14 49 0 61 -20 86 -62 77 -26 -5 -28 -3 -28 24 0 20 -5 30 -15 30 -12 0 -15 -17 -15 -90z"
       id="path86"
       style="fill:#1b448a;fill-opacity:1" />
    <path
       d="M3625 480 c-3 -6 1 -13 10 -16 19 -8 30 0 20 15 -8 14 -22 14 -30 1z"
       id="path88"
       style="fill:#1b448a;fill-opacity:1" />
    <path
       d="M270 455 c0 -8 -4 -15 -10 -15 -5 0 -10 -7 -10 -15 0 -8 5 -15 10 -15 6 0 10 -14 10 -31 0 -44 17 -69 45 -69 30 0 33 20 5 27 -15 4 -20 14 -20 39 0 27 4 34 20 34 11 0 20 5 20 11 0 6 -9 13 -20 16 -11 3 -20 12 -20 19 0 8 -7 14 -15 14 -8 0 -15 -7 -15 -15z"
       id="path90"
       style="fill:#1b448a;fill-opacity:1" />
    <path
       d="M950 456 c0 -8 -7 -16 -15 -20 -8 -3 -15 -10 -15 -16 0 -5 7 -10 15 -10 11 0 15 -11 15 -38 0 -21 5 -43 12 -50 17 -17 48 -15 48 3 0 8 -7 15 -15 15 -10 0 -15 11 -15 35 0 24 5 35 15 35 8 0 15 7 15 15 0 8 -7 15 -15 15 -8 0 -15 7 -15 15 0 8 -7 15 -15 15 -8 0 -15 -6 -15 -14z"
       id="path92"
       style="fill:#1b448a;fill-opacity:1" />
    <path
       d="M100 375 c0 -51 3 -65 15 -65 10 0 15 10 15 34 0 47 9 66 31 66 23 0 39 -29 39 -69 0 -17 5 -31 10 -31 17 0 12 97 -6 114 -18 19 -45 21 -62 4 -9 -9 -12 -9 -12 0 0 7 -7 12 -15 12 -12 0 -15 -14 -15 -65z"
       id="path94"
       style="fill:#1b448a;fill-opacity:1" />
    <path
       d="M380 420 c-25 -25 -26 -72 -2 -93 20 -19 68 -22 92 -7 12 8 12 10 -2 15 -10 4 -23 5 -30 2 -7 -2 -22 1 -33 7 -17 9 -13 12 30 16 46 5 50 7 47 30 -5 49 -65 67 -102 30z m75 -20 c4 -6 -8 -10 -30 -10 -22 0 -34 4 -30 10 3 6 17 10 30 10 13 0 27 -4 30 -10z"
       id="path96"
       style="fill:#1b448a;fill-opacity:1" />
    <path
       d="M520 373 c0 -35 4 -63 10 -63 6 0 10 14 10 31 0 44 17 71 43 67 14 -2 22 2 22 12 0 11 -12 15 -42 16 l-43 1 0 -64z"
       id="path98"
       style="fill:#1b448a;fill-opacity:1" />
    <path
       d="M630 375 c0 -50 3 -65 14 -65 10 0 16 13 18 41 6 81 68 73 68 -9 0 -22 4 -32 13 -30 17 6 20 42 7 83 -13 39 -50 56 -75 35 -10 -9 -15 -9 -15 -1 0 6 -7 11 -15 11 -12 0 -15 -14 -15 -65z"
       id="path100"
       style="fill:#1b448a;fill-opacity:1" />
    <path
       d="M803 433 c-25 -10 -12 -23 21 -23 48 0 55 -18 10 -22 -44 -4 -65 -29 -48 -55 8 -13 25 -18 63 -19 l51 -2 0 49 c0 38 -4 51 -22 63 -22 16 -51 19 -75 9z m62 -72 c8 -14 -28 -31 -44 -21 -8 4 -10 13 -7 19 9 13 43 15 51 2z"
       id="path102"
       style="fill:#1b448a;fill-opacity:1" />
    <path
       d="M1040 375 c0 -51 3 -65 15 -65 12 0 15 14 15 65 0 51 -3 65 -15 65 -12 0 -15 -14 -15 -65z"
       id="path104"
       style="fill:#1b448a;fill-opacity:1" />
    <path
       d="M1120 420 c-40 -40 -14 -110 41 -110 61 0 90 67 46 108 -29 27 -61 28 -87 2z m70 -25 c20 -24 3 -57 -28 -53 -27 3 -39 26 -28 54 7 18 40 18 56 -1z"
       id="path106"
       style="fill:#1b448a;fill-opacity:1" />
    <path
       d="M1260 373 c0 -48 3 -63 14 -63 11 0 16 14 18 48 3 43 5 47 28 47 23 0 25 -4 28 -47 2 -34 7 -48 18 -48 10 0 14 13 14 48 0 61 -19 80 -77 79 l-43 -2 0 -62z"
       id="path108"
       style="fill:#1b448a;fill-opacity:1" />
    <path
       d="M1427 433 c-15 -15 -5 -23 28 -23 44 0 46 -18 4 -22 -39 -4 -59 -30 -43 -55 8 -13 25 -18 58 -19 l46 -1 0 53 c0 42 -4 55 -19 64 -22 11 -64 13 -74 3z m60 -79 c5 -15 -20 -24 -37 -14 -7 4 -9 13 -5 19 8 14 37 11 42 -5z"
       id="path110"
       style="fill:#1b448a;fill-opacity:1" />
    <path
       d="M1880 420 c-40 -40 -14 -110 41 -110 61 0 90 67 46 108 -29 27 -61 28 -87 2z m70 -25 c20 -24 3 -57 -28 -53 -27 3 -39 26 -28 54 7 18 40 18 56 -1z"
       id="path112"
       style="fill:#1b448a;fill-opacity:1" />
    <path
       d="M2020 387 c0 -31 5 -59 13 -65 6 -6 33 -10 60 -10 l47 1 0 64 c0 48 -3 63 -14 63 -11 0 -16 -14 -18 -47 -3 -44 -5 -48 -30 -51 -25 -3 -27 -1 -30 44 -4 70 -28 71 -28 1z"
       id="path114"
       style="fill:#1b448a;fill-opacity:1" />
    <path
       d="M2180 373 c0 -35 4 -63 10 -63 6 0 10 11 10 24 0 46 18 78 43 74 19 -3 22 -10 25 -50 2 -34 7 -48 18 -48 10 0 14 12 14 43 0 61 -17 80 -74 82 l-46 2 0 -64z"
       id="path116"
       style="fill:#1b448a;fill-opacity:1" />
    <path
       d="M2353 425 c-29 -20 -31 -75 -5 -98 20 -19 59 -22 82 -7 13 8 13 10 0 14 -8 3 -26 6 -40 8 -20 2 -25 8 -25 33 0 27 3 30 30 30 20 1 30 6 30 15 0 21 -46 24 -72 5z"
       id="path118"
       style="fill:#1b448a;fill-opacity:1" />
    <path
       d="M2470 375 c0 -37 4 -65 10 -65 6 0 10 28 10 65 0 37 -4 65 -10 65 -6 0 -10 -28 -10 -65z"
       id="path120"
       style="fill:#1b448a;fill-opacity:1" />
    <path
       d="M2682 423 c-47 -40 -23 -113 37 -113 57 0 85 82 39 114 -29 21 -51 20 -76 -1z m63 -48 c0 -23 -5 -31 -21 -33 -30 -4 -48 21 -34 48 18 33 55 23 55 -15z"
       id="path122"
       style="fill:#1b448a;fill-opacity:1" />
    <path
       d="M2817 433 c-4 -3 -7 -33 -7 -65 0 -44 4 -58 14 -58 10 0 16 13 18 41 6 79 68 76 68 -2 0 -28 4 -39 15 -39 16 0 19 27 9 80 -8 39 -45 60 -75 42 -11 -7 -19 -8 -19 -2 0 11 -13 13 -23 3z"
       id="path124"
       style="fill:#1b448a;fill-opacity:1" />
    <path
       d="M3230 373 c0 -48 3 -63 14 -63 11 0 16 14 18 48 3 43 5 47 31 50 43 5 26 27 -21 28 l-42 1 0 -64z"
       id="path126"
       style="fill:#1b448a;fill-opacity:1" />
    <path
       d="M3354 414 c-44 -43 -12 -108 50 -102 44 4 46 28 3 28 -27 0 -37 5 -42 20 -9 28 13 53 42 47 27 -5 42 11 22 24 -24 15 -49 10 -75 -17z"
       id="path128"
       style="fill:#1b448a;fill-opacity:1" />
    <path
       d="M3630 376 c0 -53 3 -66 15 -66 13 0 15 11 13 62 -2 38 -8 63 -15 66 -10 3 -13 -14 -13 -62z"
       id="path130"
       style="fill:#1b448a;fill-opacity:1" />
    <path
       d="M3683 429 c58 -142 70 -149 105 -64 25 62 27 75 12 75 -6 0 -20 -21 -31 -47 l-21 -48 -18 45 c-10 26 -25 47 -35 49 -12 2 -16 -2 -12 -10z"
       id="path132"
       style="fill:#1b448a;fill-opacity:1" />
    <path
       d="M3850 420 c-55 -55 23 -143 90 -100 12 8 12 10 -3 16 -9 3 -23 4 -31 1 -8 -3 -22 1 -33 8 -16 13 -13 14 35 15 45 0 52 3 52 20 0 28 -35 60 -65 60 -14 0 -34 -9 -45 -20z m75 -20 c4 -6 -8 -10 -30 -10 -22 0 -34 4 -30 10 3 6 17 10 30 10 13 0 27 -4 30 -10z"
       id="path134"
       style="fill:#1b448a;fill-opacity:1" />
    <path
       d="M3995 426 c-26 -19 -13 -44 32 -62 31 -13 34 -17 20 -25 -11 -6 -24 -6 -36 1 -24 12 -42 -7 -20 -21 33 -21 99 0 99 31 0 13 -42 40 -62 40 -10 0 -18 5 -18 10 0 10 15 14 34 11 5 -1 16 1 25 4 13 5 14 7 1 15 -21 14 -53 12 -75 -4z"
       id="path136"
       style="fill:#1b448a;fill-opacity:1" />
    <path
       d="M53 160 c-68 -63 -8 -179 80 -153 17 4 32 15 35 23 4 12 2 13 -9 3 -20 -20 -76 -16 -99 7 -60 60 16 160 91 120 11 -6 19 -7 19 -1 0 27 -88 28 -117 1z"
       id="path138"
       style="fill:#1b448a;fill-opacity:1" />
    <path
       d="M790 170 c0 -5 5 -10 10 -10 6 0 10 5 10 10 0 6 -4 10 -10 10 -5 0 -10 -4 -10 -10z"
       id="path140"
       style="fill:#1b448a;fill-opacity:1" />
    <path
       d="M850 95 c0 -50 4 -85 10 -85 6 0 10 35 10 85 0 50 -4 85 -10 85 -6 0 -10 -35 -10 -85z"
       id="path142"
       style="fill:#1b448a;fill-opacity:1" />
    <path
       d="M980 95 c0 -50 4 -85 10 -85 6 0 10 35 10 85 0 50 -4 85 -10 85 -6 0 -10 -35 -10 -85z"
       id="path144"
       style="fill:#1b448a;fill-opacity:1" />
    <path
       d="M1950 170 c0 -5 5 -10 10 -10 6 0 10 5 10 10 0 6 -4 10 -10 10 -5 0 -10 -4 -10 -10z"
       id="path146"
       style="fill:#1b448a;fill-opacity:1" />
    <path
       d="M2464 95 c0 -50 1 -71 3 -48 2 23 2 64 0 90 -2 26 -3 8 -3 -42z"
       id="path148"
       style="fill:#1b448a;fill-opacity:1" />
    <path
       d="M2690 143 c0 -29 -3 -34 -12 -25 -18 18 -63 14 -81 -6 -20 -22 -22 -61 -4 -86 12 -17 27 -20 90 -15 l27 2 0 83 c0 49 -4 84 -10 84 -5 0 -10 -17 -10 -37z m-22 -39 c24 -17 29 -53 10 -72 -19 -19 -66 -15 -78 7 -14 28 -13 38 10 61 24 24 29 24 58 4z"
       id="path150"
       style="fill:#1b448a;fill-opacity:1" />
    <path
       d="M3115 103 c-20 -42 -34 -81 -32 -87 2 -6 9 -1 16 12 10 18 20 22 61 22 40 0 51 -4 60 -21 7 -11 14 -19 16 -17 6 7 -68 168 -78 168 -5 0 -24 -35 -43 -77z m58 30 c8 -16 18 -38 21 -50 7 -22 4 -23 -38 -23 l-45 0 21 50 c11 28 22 50 24 50 2 0 10 -12 17 -27z"
       id="path152"
       style="fill:#1b448a;fill-opacity:1" />
    <path
       d="M3513 95 c0 -50 2 -72 4 -50 5 41 26 75 48 75 20 0 35 -25 44 -71 l9 -44 1 47 c1 30 -4 52 -15 62 -19 19 -60 21 -71 4 -5 -8 -10 1 -14 27 -4 26 -6 8 -6 -50z"
       id="path154"
       style="fill:#1b448a;fill-opacity:1" />
    <path
       d="M3660 170 c0 -5 5 -10 10 -10 6 0 10 5 10 10 0 6 -4 10 -10 10 -5 0 -10 -4 -10 -10z"
       id="path156"
       style="fill:#1b448a;fill-opacity:1" />
    <path
       d="M1865 155 c-5 -11 -13 -23 -19 -27 -7 -5 -7 -8 2 -8 7 0 12 -13 12 -32 0 -66 27 -105 54 -78 7 7 3 10 -12 10 -20 0 -22 5 -22 49 0 43 3 50 23 54 22 4 22 4 0 6 -14 1 -23 9 -26 24 -3 21 -4 21 -12 2z"
       id="path158"
       style="fill:#1b448a;fill-opacity:1" />
    <path
       d="M1210 146 c0 -8 -6 -17 -12 -19 -10 -4 -10 -6 0 -6 7 -1 12 -17 12 -45 0 -55 35 -98 55 -66 3 5 -3 10 -14 10 -18 0 -21 6 -21 49 0 43 3 50 23 54 l22 4 -22 2 c-13 0 -23 8 -23 16 0 8 -4 15 -10 15 -5 0 -10 -6 -10 -14z"
       id="path160"
       style="fill:#1b448a;fill-opacity:1" />
    <path
       d="M220 110 c-36 -36 -21 -89 30 -105 39 -12 87 36 75 75 -16 51 -69 66 -105 30z m74 -6 c19 -18 21 -55 4 -72 -7 -7 -25 -12 -40 -12 -45 0 -58 57 -20 88 21 16 37 15 56 -4z"
       id="path162"
       style="fill:#1b448a;fill-opacity:1" />
    <path
       d="M360 68 c0 -32 4 -58 10 -58 6 0 10 20 10 44 0 54 19 74 55 58 21 -10 25 -18 25 -57 0 -25 5 -45 10 -45 14 0 12 60 -3 90 -11 21 -20 25 -60 25 l-47 0 0 -57z"
       id="path164"
       style="fill:#1b448a;fill-opacity:1" />
    <path
       d="M520 115 c-19 -23 -5 -42 37 -52 55 -13 51 -38 -6 -37 -39 1 -42 -1 -26 -13 24 -17 46 -17 69 0 29 21 16 50 -27 60 -49 12 -48 43 1 41 17 -1 29 2 26 7 -9 14 -60 10 -74 -6z"
       id="path166"
       style="fill:#1b448a;fill-opacity:1" />
    <path
       d="M657 112 c-20 -22 -22 -75 -4 -90 23 -20 61 -23 82 -8 19 14 18 15 -17 9 -24 -3 -43 -1 -53 7 -27 22 -16 30 40 30 47 0 55 3 55 18 0 46 -72 69 -103 34z m75 -9 c29 -26 22 -33 -32 -33 -54 0 -59 4 -33 32 20 22 41 23 65 1z"
       id="path168"
       style="fill:#1b448a;fill-opacity:1" />
    <path
       d="M790 70 c0 -33 4 -60 10 -60 6 0 10 27 10 60 0 33 -4 60 -10 60 -6 0 -10 -27 -10 -60z"
       id="path170"
       style="fill:#1b448a;fill-opacity:1" />
    <path
       d="M1052 70 l1 -65 7 50 c4 28 3 57 -1 65 -5 9 -8 -11 -7 -50z"
       id="path172"
       style="fill:#1b448a;fill-opacity:1" />
    <path
       d="M1075 120 c-4 -7 2 -9 17 -5 31 8 50 -14 59 -68 l6 -42 2 47 c1 30 -4 52 -15 62 -18 18 -60 21 -69 6z"
       id="path174"
       style="fill:#1b448a;fill-opacity:1" />
    <path
       d="M1310 110 c-33 -33 -26 -76 17 -99 28 -14 35 -14 57 2 15 11 12 12 -23 9 -32 -3 -41 0 -50 17 -11 20 -9 21 44 21 48 0 55 3 55 19 0 48 -64 67 -100 31z m74 -6 c26 -25 19 -34 -29 -34 -46 0 -58 13 -33 38 17 17 44 15 62 -4z"
       id="path176"
       style="fill:#1b448a;fill-opacity:1" />
    <path
       d="M1452 70 l1 -65 7 50 c4 28 3 57 -1 65 -5 9 -8 -11 -7 -50z"
       id="path178"
       style="fill:#1b448a;fill-opacity:1" />
    <path
       d="M1476 121 c-3 -5 5 -8 19 -7 14 0 25 4 25 9 0 10 -38 9 -44 -2z"
       id="path180"
       style="fill:#1b448a;fill-opacity:1" />
    <path
       d="M1550 70 c0 -33 4 -60 10 -60 6 0 10 20 10 45 0 39 4 47 25 57 36 16 55 -4 55 -58 0 -24 5 -44 10 -44 16 0 12 73 -6 98 -17 24 -53 29 -72 10 -9 -9 -12 -9 -12 0 0 7 -4 12 -10 12 -6 0 -10 -27 -10 -60z"
       id="path182"
       style="fill:#1b448a;fill-opacity:1" />
    <path
       d="M1715 120 c-4 -6 5 -7 23 -4 20 4 34 1 45 -11 23 -22 14 -33 -23 -27 -16 2 -37 -1 -45 -8 -39 -32 4 -83 52 -61 13 6 29 9 34 6 5 -4 9 16 9 44 0 39 -4 53 -19 61 -25 13 -68 13 -76 0z m70 -75 c0 -15 -8 -21 -29 -23 -37 -4 -54 11 -36 33 19 23 65 16 65 -10z"
       id="path184"
       style="fill:#1b448a;fill-opacity:1" />
    <path
       d="M1953 70 c0 -36 2 -50 4 -32 2 17 2 47 0 65 -2 17 -4 3 -4 -33z"
       id="path186"
       style="fill:#1b448a;fill-opacity:1" />
    <path
       d="M2020 110 c-36 -36 -21 -89 31 -105 25 -8 69 19 70 43 5 71 -55 108 -101 62z m72 -7 c21 -18 24 -53 6 -71 -19 -19 -66 -15 -78 7 -14 28 -13 38 10 61 24 24 38 25 62 3z"
       id="path188"
       style="fill:#1b448a;fill-opacity:1" />
    <path
       d="M2162 70 c0 -60 1 -61 7 -22 10 57 32 79 65 64 20 -9 26 -20 29 -59 4 -47 4 -47 3 6 -1 65 -18 82 -65 64 -22 -8 -31 -8 -35 1 -2 6 -4 -18 -4 -54z"
       id="path190"
       style="fill:#1b448a;fill-opacity:1" />
    <path
       d="M2325 120 c-4 -7 2 -9 19 -4 28 7 56 -9 56 -31 0 -8 -8 -11 -20 -8 -37 10 -70 -5 -70 -32 0 -29 32 -49 63 -39 12 5 28 7 35 6 20 -4 15 82 -6 101 -21 19 -67 23 -77 7z m70 -60 c10 -16 -14 -40 -41 -40 -26 0 -38 14 -30 35 6 17 62 20 71 5z"
       id="path192"
       style="fill:#1b448a;fill-opacity:1" />
    <path
       d="M2760 110 c-28 -28 -25 -64 6 -89 32 -25 44 -26 70 -6 18 14 18 14 -3 8 -32 -8 -73 5 -73 22 0 11 13 15 50 15 46 0 50 2 50 25 0 44 -64 61 -100 25z m71 0 c36 -20 23 -40 -26 -40 -46 0 -58 13 -33 38 15 15 33 15 59 2z"
       id="path194"
       style="fill:#1b448a;fill-opacity:1" />
    <path
       d="M2900 115 c-19 -23 -5 -42 37 -52 55 -13 51 -38 -6 -37 -39 1 -42 -1 -26 -13 24 -17 46 -17 69 0 29 21 16 50 -27 60 -49 12 -48 43 1 41 17 -1 29 2 26 7 -9 14 -60 10 -74 -6z"
       id="path196"
       style="fill:#1b448a;fill-opacity:1" />
    <path
       d="M3270 70 c0 -33 4 -60 10 -60 6 0 10 20 10 45 0 34 5 47 20 55 11 6 25 8 30 5 6 -3 10 -1 10 4 0 15 -33 14 -48 -1 -9 -9 -12 -9 -12 0 0 7 -4 12 -10 12 -6 0 -10 -27 -10 -60z"
       id="path198"
       style="fill:#1b448a;fill-opacity:1" />
    <path
       d="M3392 114 c-55 -38 -1 -132 62 -108 28 11 17 20 -18 16 -27 -3 -37 0 -46 17 -22 42 17 90 62 75 14 -4 18 -2 14 5 -10 16 -48 14 -74 -5z"
       id="path200"
       style="fill:#1b448a;fill-opacity:1" />
    <path
       d="M3663 70 c0 -36 2 -50 4 -32 2 17 2 47 0 65 -2 17 -4 3 -4 -33z"
       id="path202"
       style="fill:#1b448a;fill-opacity:1" />
    <path
       d="M3712 122 c2 -4 12 -31 22 -60 11 -29 25 -52 31 -52 7 0 23 27 38 60 14 33 22 60 18 60 -5 0 -18 -24 -31 -52 l-22 -53 -24 53 c-13 28 -26 52 -30 52 -3 0 -4 -4 -2 -8z"
       id="path204"
       style="fill:#1b448a;fill-opacity:1" />
    <path
       d="M3867 112 c-20 -22 -22 -75 -4 -90 23 -20 61 -23 82 -8 19 14 18 15 -17 9 -24 -3 -43 -1 -53 7 -27 22 -16 30 40 30 47 0 55 3 55 18 0 46 -72 69 -103 34z m71 -4 c25 -25 13 -38 -33 -38 -48 0 -55 9 -29 34 18 19 45 21 62 4z"
       id="path206"
       style="fill:#1b448a;fill-opacity:1" />
    <path
       d="M4012 121 c-24 -15 -9 -45 28 -57 19 -6 37 -19 38 -29 3 -15 -2 -17 -37 -13 -47 4 -49 3 -21 -12 24 -13 67 -3 74 17 8 19 -11 43 -33 43 -10 0 -26 7 -37 15 -16 13 -17 16 -4 25 8 6 28 8 43 5 17 -3 26 -1 22 5 -8 12 -55 13 -73 1z"
       id="path208"
       style="fill:#1b448a;fill-opacity:1" />
  </g>
</svg>
