<?xml version="1.0" encoding="UTF-8" standalone="no"?>
<svg
   version="1.0"
   width="407.43307pt"
   height="184.52336pt"
   viewBox="0 0 407.43308 184.52336"
   preserveAspectRatio="xMidYMid meet"
   id="svg212"
   sodipodi:docname="logo_ica_mark.svg"
   inkscape:version="1.1.2 (0a00cf5339, 2022-02-04)"
   xmlns:inkscape="http://www.inkscape.org/namespaces/inkscape"
   xmlns:sodipodi="http://sodipodi.sourceforge.net/DTD/sodipodi-0.dtd"
   xmlns="http://www.w3.org/2000/svg"
   xmlns:svg="http://www.w3.org/2000/svg">
  <defs
     id="defs216">
    <rect
       x="2.7826023"
       y="174.84573"
       width="540.14355"
       height="71.020744"
       id="rect23026" />
    <rect
       x="1.3881485"
       y="179.67451"
       width="542.4129"
       height="67.653885"
       id="rect6630" />
  </defs>
  <sodipodi:namedview
     id="namedview214"
     pagecolor="#ffffff"
     bordercolor="#666666"
     borderopacity="1.0"
     inkscape:pageshadow="2"
     inkscape:pageopacity="0.0"
     inkscape:pagecheckerboard="0"
     inkscape:document-units="pt"
     showgrid="false"
     inkscape:zoom="1.28"
     inkscape:cx="249.21875"
     inkscape:cy="194.92188"
     inkscape:window-width="1890"
     inkscape:window-height="1051"
     inkscape:window-x="30"
     inkscape:window-y="0"
     inkscape:window-maximized="1"
     inkscape:current-layer="g210"
     inkscape:snap-text-baseline="false" />
  <g
     transform="matrix(0.1,0,0,-0.1,-1,185.81037)"
     fill="#000000"
     stroke="none"
     id="g210"
     style="fill:#1b448a;fill-opacity:1">
    <path
       d="m 485,1837 c -95,-45 -138,-127 -116,-221 15,-64 52,-112 107,-139 l 44,-21 v -208 -208 h 30 c 91,0 138,-88 75,-140 -23,-19 -107,-15 -188,10 -84,26 -176,94 -223,164 -19,30 -44,56 -55,59 -19,5 -27,37 -9,37 6,0 10,-5 10,-12 0,-6 2,-9 5,-6 14,13 -9,38 -35,38 -16,0 -32,5 -35,10 -3,6 -2,10 3,10 5,0 7,12 5,28 l -4,27 20,-24 21,-23 v 31 c 0,19 -6,34 -15,37 -14,6 -14,8 1,18 20,15 16,71 -6,71 -8,0 -17,3 -20,6 -3,3 -14,11 -25,17 -20,11 -20,11 2,12 12,0 32,-4 45,-9 20,-7 23,-5 25,16 1,18 -2,22 -10,14 -13,-13 -57,-15 -57,-2 0,5 -9,7 -20,4 -11,-3 -17,-9 -14,-14 3,-5 -5,-13 -17,-18 -21,-7 -20,-9 14,-15 25,-5 37,-12 37,-23 0,-13 -3,-14 -12,-5 -7,7 -22,12 -35,12 -20,0 -23,-5 -23,-40 0,-26 5,-40 13,-40 7,0 20,-9 30,-20 16,-19 16,-20 -3,-20 -11,0 -20,5 -20,10 0,6 -4,10 -10,10 -5,0 -10,-7 -10,-15 0,-10 10,-15 30,-15 17,0 30,-4 30,-10 0,-5 -11,-10 -25,-10 -38,0 -30,-14 17,-30 31,-11 44,-21 46,-37 4,-26 -13,-31 -22,-7 -4,10 -12,14 -23,10 -9,-4 -20,-1 -26,6 -5,8 -6,2 -2,-17 4,-16 11,-31 16,-33 5,-2 9,-11 9,-20 1,-9 9,-33 20,-52 16,-29 19,-31 20,-13 0,34 20,39 20,5 0,-22 6,-32 23,-37 19,-6 19,-8 5,-12 -10,-2 -18,-8 -18,-13 0,-18 132,-129 182,-154 69,-34 198,-66 262,-66 88,1 169,48 207,122 44,86 5,208 -82,256 l -49,27 v 208 207 h -34 c -18,0 -48,10 -67,23 -29,19 -34,29 -34,61 0,31 6,43 27,59 25,19 33,20 98,10 130,-20 267,-107 322,-204 11,-20 29,-40 39,-42 11,-3 19,-13 19,-24 -1,-17 -2,-17 -17,2 -14,18 -15,18 -9,2 3,-10 6,-23 6,-28 0,-5 16,-9 35,-9 34,0 35,-1 29,-27 -9,-38 -12,-40 -29,-17 -14,18 -14,18 -15,-7 0,-15 7,-32 15,-39 13,-11 13,-14 -1,-27 -8,-9 -14,-27 -12,-42 2,-20 8,-25 26,-24 12,2 22,-1 22,-6 0,-5 10,-12 23,-16 21,-8 21,-8 -5,-12 -22,-3 -25,-7 -16,-17 16,-16 48,-9 48,11 0,10 6,13 16,9 10,-4 14,-1 12,6 -3,7 -17,15 -33,18 -16,3 -31,12 -33,20 -4,13 -3,13 11,2 28,-23 57,-6 57,34 0,24 -5,34 -15,34 -8,0 -15,6 -15,14 0,8 -8,17 -17,19 -15,4 -14,5 3,6 11,0 25,-4 32,-11 9,-9 12,-8 12,4 0,10 -12,19 -32,24 l -33,8 35,6 35,6 -48,22 c -50,23 -67,46 -48,65 8,8 11,7 11,-5 0,-23 18,-32 35,-18 12,10 15,9 16,-6 0,-13 2,-15 6,-5 3,8 -1,28 -9,45 -8,17 -23,49 -34,71 -15,35 -18,37 -22,18 -5,-31 -22,-29 -22,2 0,16 -6,25 -15,25 -18,0 -19,12 -3,29 11,10 3,22 -40,62 -103,95 -225,148 -362,155 -75,5 -91,2 -135,-19 z"
       id="path2"
       style="fill:#1b448a;fill-opacity:1" />
    <path
       d="m 2313,1850 c -224,-41 -387,-209 -430,-443 -34,-192 20,-382 147,-507 100,-100 235,-150 404,-150 150,0 266,38 364,118 l 44,35 -67,67 -67,67 -49,-32 c -73,-50 -141,-69 -234,-68 -150,2 -264,71 -321,195 -26,57 -29,73 -29,168 0,93 3,112 27,162 37,80 96,140 171,174 55,26 73,29 162,29 107,0 161,-17 230,-69 l 30,-23 68,63 68,63 -52,41 c -61,48 -92,65 -168,92 -65,23 -219,32 -298,18 z"
       id="path4"
       style="fill:#1b448a;fill-opacity:1" />
    <path
       d="M 1500,1305 V 770 h 100 100 v 535 535 h -100 -100 z"
       id="path6"
       style="fill:#1b448a;fill-opacity:1" />
    <path
       d="m 3367,1808 c -26,-60 -449,-1003 -459,-1020 -8,-17 0,-18 100,-18 h 109 l 46,100 46,100 282,-2 283,-3 43,-95 42,-95 110,-3 110,-3 -116,258 c -64,142 -171,382 -239,533 l -123,275 -110,3 -110,3 z m 225,-421 96,-222 -99,-3 c -54,-1 -144,-1 -198,0 l -99,3 96,222 c 54,123 99,223 102,223 3,0 49,-100 102,-223 z"
       id="path8"
       style="fill:#1b448a;fill-opacity:1" />
    <path
       d="m 330,1795 c 0,-8 7,-15 15,-15 8,0 15,7 15,15 0,8 -7,15 -15,15 -8,0 -15,-7 -15,-15 z"
       id="path10"
       style="fill:#1b448a;fill-opacity:1" />
    <path
       d="m 290,1765 c 0,-8 7,-15 15,-15 8,0 15,7 15,15 0,8 -7,15 -15,15 -8,0 -15,-7 -15,-15 z"
       id="path12"
       style="fill:#1b448a;fill-opacity:1" />
    <path
       d="m 240,1755 c 0,-8 7,-15 15,-15 8,0 15,7 15,15 0,8 -7,15 -15,15 -8,0 -15,-7 -15,-15 z"
       id="path14"
       style="fill:#1b448a;fill-opacity:1" />
    <path
       d="m 180,1705 c 0,-8 7,-15 15,-15 8,0 15,7 15,15 0,8 -7,15 -15,15 -8,0 -15,-7 -15,-15 z"
       id="path16"
       style="fill:#1b448a;fill-opacity:1" />
    <path
       d="m 220,1705 c 0,-8 7,-15 15,-15 8,0 15,7 15,15 0,8 -7,15 -15,15 -8,0 -15,-7 -15,-15 z"
       id="path18"
       style="fill:#1b448a;fill-opacity:1" />
    <path
       d="m 260,1705 c 0,-8 7,-15 15,-15 8,0 15,7 15,15 0,8 -7,15 -15,15 -8,0 -15,-7 -15,-15 z"
       id="path20"
       style="fill:#1b448a;fill-opacity:1" />
    <path
       d="m 150,1665 c 0,-8 7,-15 15,-15 8,0 15,7 15,15 0,8 -7,15 -15,15 -8,0 -15,-7 -15,-15 z"
       id="path22"
       style="fill:#1b448a;fill-opacity:1" />
    <path
       d="m 190,1665 c 0,-8 7,-15 15,-15 8,0 15,7 15,15 0,8 -7,15 -15,15 -8,0 -15,-7 -15,-15 z"
       id="path24"
       style="fill:#1b448a;fill-opacity:1" />
    <path
       d="m 230,1665 c 0,-8 7,-15 15,-15 8,0 15,7 15,15 0,8 -7,15 -15,15 -8,0 -15,-7 -15,-15 z"
       id="path26"
       style="fill:#1b448a;fill-opacity:1" />
    <path
       d="m 200,1625 c 0,-8 7,-15 15,-15 8,0 15,7 15,15 0,8 -7,15 -15,15 -8,0 -15,-7 -15,-15 z"
       id="path28"
       style="fill:#1b448a;fill-opacity:1" />
    <path
       d="m 150,1615 c 6,-7 9,-19 7,-26 -2,-8 -2,-11 0,-6 8,13 21,8 26,-10 3,-10 5,-2 6,18 1,33 -2,37 -24,37 -19,0 -23,-4 -15,-13 z"
       id="path30"
       style="fill:#1b448a;fill-opacity:1" />
    <path
       d="m 124,1594 c -4,-10 -9,-22 -11,-26 -2,-5 0,-8 6,-8 11,0 26,39 17,47 -3,3 -9,-3 -12,-13 z"
       id="path32"
       style="fill:#1b448a;fill-opacity:1" />
    <path
       d="m 74,1549 c -15,-29 -15,-31 0,-26 10,4 16,1 16,-8 0,-7 -8,-16 -17,-18 -14,-4 -13,-5 4,-6 12,0 25,4 28,9 5,8 12,7 23,-2 10,-8 13,-9 9,-1 -12,19 15,27 29,8 11,-15 13,-14 12,14 -1,35 -16,39 -52,16 -21,-14 -24,-14 -29,0 -4,8 -4,22 -1,30 11,27 -5,15 -22,-16 z"
       id="path34"
       style="fill:#1b448a;fill-opacity:1" />
    <path
       d="m 95,1451 c -7,-12 12,-24 25,-16 11,7 4,25 -10,25 -5,0 -11,-4 -15,-9 z"
       id="path36"
       style="fill:#1b448a;fill-opacity:1" />
    <path
       d="m 741,1353 c -25,-17 -27,-46 -4,-68 28,-28 123,0 123,36 0,30 -88,54 -119,32 z"
       id="path38"
       style="fill:#1b448a;fill-opacity:1" />
    <path
       d="m 334,1326 c -49,-22 -52,-41 -9,-63 45,-23 74,-24 95,-3 24,24 25,43 4,64 -19,19 -49,20 -90,2 z"
       id="path40"
       style="fill:#1b448a;fill-opacity:1" />
    <path
       d="m 1019,1211 c 9,-6 10,-11 2,-15 -6,-4 -11,-12 -11,-18 0,-6 9,-3 20,7 16,14 17,20 8,27 -7,4 -17,8 -23,8 -5,0 -4,-4 4,-9 z"
       id="path42"
       style="fill:#1b448a;fill-opacity:1" />
    <path
       d="m 1040,1165 c 0,-9 5,-15 11,-13 6,2 11,8 11,13 0,5 -5,11 -11,13 -6,2 -11,-4 -11,-13 z"
       id="path44"
       style="fill:#1b448a;fill-opacity:1" />
    <path
       d="m 1061,1114 c -16,-12 -21,-12 -21,-2 0,8 -5,6 -11,-4 -12,-22 -29,-23 -29,-3 0,8 -4,15 -9,15 -5,0 -8,-12 -7,-27 4,-34 32,-42 51,-16 15,20 30,11 38,-22 4,-18 5,-18 14,5 8,19 7,26 -3,28 -22,5 -16,20 9,24 18,3 19,4 6,10 -9,3 -26,0 -38,-8 z"
       id="path46"
       style="fill:#1b448a;fill-opacity:1" />
    <path
       d="m 1042,1058 c -5,-7 -13,-24 -17,-37 -11,-35 11,-18 23,19 12,32 10,37 -6,18 z"
       id="path48"
       style="fill:#1b448a;fill-opacity:1" />
    <path
       d="m 971,1034 c 1,-24 17,-65 18,-44 1,11 4,11 13,2 17,-17 33,-15 18,3 -7,8 -10,22 -6,30 3,8 1,15 -4,15 -6,0 -10,-6 -10,-12 0,-8 -7,-5 -15,6 -15,20 -15,20 -14,0 z"
       id="path50"
       style="fill:#1b448a;fill-opacity:1" />
    <path
       d="m 937,994 c -9,-10 2,-24 19,-24 8,0 14,7 14,15 0,15 -21,21 -33,9 z"
       id="path52"
       style="fill:#1b448a;fill-opacity:1" />
    <path
       d="m 900,945 c 0,-8 7,-15 15,-15 8,0 15,7 15,15 0,8 -7,15 -15,15 -8,0 -15,-7 -15,-15 z"
       id="path54"
       style="fill:#1b448a;fill-opacity:1" />
    <path
       d="m 940,945 c 0,-8 7,-15 15,-15 8,0 15,7 15,15 0,8 -7,15 -15,15 -8,0 -15,-7 -15,-15 z"
       id="path56"
       style="fill:#1b448a;fill-opacity:1" />
    <path
       d="m 987,954 c -9,-10 2,-24 19,-24 8,0 14,7 14,15 0,15 -21,21 -33,9 z"
       id="path58"
       style="fill:#1b448a;fill-opacity:1" />
    <path
       d="m 870,905 c 0,-8 7,-15 15,-15 8,0 15,7 15,15 0,8 -7,15 -15,15 -8,0 -15,-7 -15,-15 z"
       id="path60"
       style="fill:#1b448a;fill-opacity:1" />
    <path
       d="m 910,905 c 0,-8 7,-15 15,-15 8,0 15,7 15,15 0,8 -7,15 -15,15 -8,0 -15,-7 -15,-15 z"
       id="path62"
       style="fill:#1b448a;fill-opacity:1" />
    <path
       d="m 950,905 c 0,-8 7,-15 15,-15 8,0 15,7 15,15 0,8 -7,15 -15,15 -8,0 -15,-7 -15,-15 z"
       id="path64"
       style="fill:#1b448a;fill-opacity:1" />
    <path
       d="m 890,854 c 0,-17 22,-14 28,4 2,7 -3,12 -12,12 -9,0 -16,-7 -16,-16 z"
       id="path66"
       style="fill:#1b448a;fill-opacity:1" />
    <path
       d="m 840,845 c 0,-8 7,-15 15,-15 8,0 15,7 15,15 0,8 -7,15 -15,15 -8,0 -15,-7 -15,-15 z"
       id="path68"
       style="fill:#1b448a;fill-opacity:1" />
    <path
       d="m 800,815 c 0,-8 7,-15 15,-15 8,0 15,7 15,15 0,8 -7,15 -15,15 -8,0 -15,-7 -15,-15 z"
       id="path70"
       style="fill:#1b448a;fill-opacity:1" />
    <text
       xml:space="preserve"
       transform="matrix(7.5,0,0,-7.5,10,1858.1037)"
       id="text6628"
       style="font-size:24px;line-height:1.25;font-family:sans-serif;-inkscape-font-specification:'sans-serif, Normal';font-variant-ligatures:none;white-space:pre;shape-inside:url(#rect6630)" />
    <text
       xml:space="preserve"
       transform="matrix(10.831283,0,0,-10.721944,-2.47178,2454.3823)"
       id="text23024"
       style="font-size:24px;line-height:1.25;font-family:sans-serif;-inkscape-font-specification:'sans-serif, Normal';font-variant-ligatures:none;white-space:pre;shape-inside:url(#rect23026)"><tspan
         x="2.7832031"
         y="196.68271"
         id="tspan38644"><tspan
   style="font-weight:bold;font-family:'Nexa Bold';-inkscape-font-specification:'Nexa Bold, Bold'"
   id="tspan38642">International Council  on Archives</tspan>
</tspan><tspan
         x="2.7832031"
         y="227.51971"
         id="tspan38648"><tspan
           style="font-family:'Nexa Light';-inkscape-font-specification:'Nexa Light, Normal'"
           id="tspan38646">Conseil International des Archives</tspan></tspan></text>
  </g>
</svg>
