<?xml version="1.0" encoding="UTF-8" standalone="no"?>
<svg
   version="1.1"
   viewBox="0 0 300.00696 299.96082"
   width="49.5061"
   height="49.498486"
   id="archives_logo"
   sodipodi:docname="archives_logo_sans_logomark.svg"
   inkscape:version="1.1.2 (0a00cf5339, 2022-02-04)"
   xmlns:inkscape="http://www.inkscape.org/namespaces/inkscape"
   xmlns:sodipodi="http://sodipodi.sourceforge.net/DTD/sodipodi-0.dtd"
   xmlns="http://www.w3.org/2000/svg"
   xmlns:svg="http://www.w3.org/2000/svg">
  <defs
     id="defs11" />
  <sodipodi:namedview
     id="namedview9"
     pagecolor="#ffffff"
     bordercolor="#666666"
     borderopacity="1.0"
     inkscape:pageshadow="2"
     inkscape:pageopacity="0.0"
     inkscape:pagecheckerboard="0"
     showgrid="false"
     inkscape:zoom="4.3833333"
     inkscape:cx="55.323194"
     inkscape:cy="44.486692"
     inkscape:window-width="1498"
     inkscape:window-height="843"
     inkscape:window-x="182"
     inkscape:window-y="398"
     inkscape:window-maximized="0"
     inkscape:current-layer="archives_logo" />
  <g
     style="fill:#824141"
     id="g6"
     transform="translate(-0.99302747,-1.503775)">
    <path
       d="m 231.6,105.4 c -5.3,-3.3 -19.3,14.7 -15.2,17.3 14.7,9.2 20,31.7 10.1,46.5 -5.3,8 -22,12.6 -32.6,14.6 -10.1,2 -20.7,3 -31.4,3 0,-23.7 0,-47.5 0,-71.2 13.1,-4.7 24.1,-14.3 29.3,-28.1 8.3,-21.8 -12.7,-30.4 -30.9,-30.4 -6.4,0 -14.6,10.8 -14.6,16.7 0,9.1 0,18.2 0,27.2 -6,-0.4 -12,-1.1 -17.7,-1.5 -14.4,-0.9 -30.3,-1.8 -43.8,4 -15.3,6.5 -27.4,21.7 -29.7,38.1 -2.3,15.9 2.4,31.9 14.9,42.5 11.7,10 27.6,14.7 42.5,17.4 10.9,2 22.3,3.1 33.8,3.3 0,6 0,32.2 0,39.4 0,4.3 8.2,-2.2 9,-2.9 3.3,-3.1 7.3,-7.7 7.3,-12.4 0,-8.2 0,-16.3 0,-24.5 10.9,-0.8 21.6,-2.6 31.7,-5.6 19,-5.7 36,-17.8 45.8,-35.2 10.4,-18.5 11.5,-45.7 -8.5,-58.2 z M 177.5,91.2 c 0.1,2.3 -0.5,5.2 -0.5,5.5 -1.9,1.4 -4.7,2.2 -6.8,2.8 -2.5,0.7 -5,1.2 -7.6,1.5 0,-7 0,-23.2 0,-24.3 2.9,0.8 5.7,2 8.4,4 3.4,2.6 6.3,6 6.5,10.5 z m -59.8,90.7 C 104,178.6 89.8,173 80.4,162.2 c -5,-5.7 -7.9,-12.4 -9.1,-19.8 -0.6,-3.8 -0.7,-7.7 -0.3,-11.5 0.3,-2.5 0.7,-5.6 2.4,-8.9 0,0 0,0 0,0 2.5,-1.4 5.3,-2.3 8.1,-3 6.4,-1.6 13.1,-1.8 19.7,-1.8 14.2,0.1 28.3,2.1 42.5,1.9 0.9,0 1.7,-0.1 2.6,-0.1 0,22.4 0,44.9 0,67.3 -9.7,-0.7 -19.4,-2.2 -28.6,-4.4 z M 273.4,62.7 C 256,38.5 231.3,20.2 203.2,10.1 174.2,-0.3 141.8,-1.3 112.2,7.3 82.7,15.9 56.1,33.2 36.6,56.8 16.2,81.5 3.8,111.8 1.4,143.7 c -2.3,30.5 5.2,61.6 21.2,87.7 15.3,25 38.5,45.4 65.5,57.3 28.4,12.5 60.5,16 90.9,9.7 30.3,-6.3 58.1,-22.1 79.4,-44.3 21.5,-22.4 36.1,-51.5 40.8,-82.1 1.2,-7.8 1.8,-15.7 1.8,-23.6 -0.1,-30.5 -9.6,-60.8 -27.6,-85.7 z m 12.2,103.4 C 266.4,328 41.1,324.5 17.1,166.6 c -1.2,-5.7 -1.4,-26.7 -0.5,-31.2 0.3,-6.8 4,-22.8 4.9,-25.1 2.3,-7.8 5.4,-15.2 9,-22.5 C 30,88.8 29.9,89 30,88.9 33.4,82.1 37.7,75.2 42.2,69 47.7,60.9 65.4,43.3 78.3,36 83,33 97.2,25.7 105.9,23.1 149.8,7.3 208.5,19.2 243.7,54.8 273,83 289.3,124.9 285.6,166.1 Z"
       id="path2"
       inkscape:export-filename="/home/user/Pictures/archivesatncbs-200x200.png"
       inkscape:export-xdpi="387.89062"
       inkscape:export-ydpi="387.89062" />
  </g>
</svg>
