<?xml version="1.0" encoding="UTF-8" standalone="no"?>
<svg
   version="1.1"
   viewBox="0 0 300.00696 299.96082"
   width="49.5061"
   height="49.498486"
   id="archives_logo"
   sodipodi:docname="logo_archives_ncbs.svg"
   inkscape:version="1.1.2 (0a00cf5339, 2022-02-04)"
   xmlns:inkscape="http://www.inkscape.org/namespaces/inkscape"
   xmlns:sodipodi="http://sodipodi.sourceforge.net/DTD/sodipodi-0.dtd"
   xmlns="http://www.w3.org/2000/svg"
   xmlns:svg="http://www.w3.org/2000/svg">
  <defs
     id="defs11" />
  <sodipodi:namedview
     id="namedview9"
     pagecolor="#ffffff"
     bordercolor="#666666"
     borderopacity="1.0"
     inkscape:pageshadow="2"
     inkscape:pageopacity="0.0"
     inkscape:pagecheckerboard="0"
     showgrid="false"
     inkscape:zoom="12.397939"
     inkscape:cx="14.558872"
     inkscape:cy="22.987692"
     inkscape:window-width="1890"
     inkscape:window-height="1051"
     inkscape:window-x="30"
     inkscape:window-y="0"
     inkscape:window-maximized="1"
     inkscape:current-layer="archives_logo" />
  <g
     style="fill:#824141"
     id="g6"
     transform="translate(-0.99302747,-1.503775)">
    <path
       d="m 231.6,105.4 c -5.3,-3.3 -19.3,14.7 -15.2,17.3 14.7,9.2 20,31.7 10.1,46.5 -5.3,8 -22,12.6 -32.6,14.6 -10.1,2 -20.7,3 -31.4,3 0,-23.7 0,-47.5 0,-71.2 13.1,-4.7 24.1,-14.3 29.3,-28.1 8.3,-21.8 -12.7,-30.4 -30.9,-30.4 -6.4,0 -14.6,10.8 -14.6,16.7 0,9.1 0,18.2 0,27.2 -6,-0.4 -12,-1.1 -17.7,-1.5 -14.4,-0.9 -30.3,-1.8 -43.8,4 -15.3,6.5 -27.4,21.7 -29.7,38.1 -2.3,15.9 2.4,31.9 14.9,42.5 11.7,10 27.6,14.7 42.5,17.4 10.9,2 22.3,3.1 33.8,3.3 0,6 0,32.2 0,39.4 0,4.3 8.2,-2.2 9,-2.9 3.3,-3.1 7.3,-7.7 7.3,-12.4 0,-8.2 0,-16.3 0,-24.5 10.9,-0.8 21.6,-2.6 31.7,-5.6 19,-5.7 36,-17.8 45.8,-35.2 10.4,-18.5 11.5,-45.7 -8.5,-58.2 z M 177.5,91.2 c 0.1,2.3 -0.5,5.2 -0.5,5.5 -1.9,1.4 -4.7,2.2 -6.8,2.8 -2.5,0.7 -5,1.2 -7.6,1.5 0,-7 0,-23.2 0,-24.3 2.9,0.8 5.7,2 8.4,4 3.4,2.6 6.3,6 6.5,10.5 z m -59.8,90.7 C 104,178.6 89.8,173 80.4,162.2 c -5,-5.7 -7.9,-12.4 -9.1,-19.8 -0.6,-3.8 -0.7,-7.7 -0.3,-11.5 0.3,-2.5 0.7,-5.6 2.4,-8.9 0,0 0,0 0,0 2.5,-1.4 5.3,-2.3 8.1,-3 6.4,-1.6 13.1,-1.8 19.7,-1.8 14.2,0.1 28.3,2.1 42.5,1.9 0.9,0 1.7,-0.1 2.6,-0.1 0,22.4 0,44.9 0,67.3 -9.7,-0.7 -19.4,-2.2 -28.6,-4.4 z M 273.4,62.7 C 256,38.5 231.3,20.2 203.2,10.1 174.2,-0.3 141.8,-1.3 112.2,7.3 82.7,15.9 56.1,33.2 36.6,56.8 16.2,81.5 3.8,111.8 1.4,143.7 c -2.3,30.5 5.2,61.6 21.2,87.7 15.3,25 38.5,45.4 65.5,57.3 28.4,12.5 60.5,16 90.9,9.7 30.3,-6.3 58.1,-22.1 79.4,-44.3 21.5,-22.4 36.1,-51.5 40.8,-82.1 1.2,-7.8 1.8,-15.7 1.8,-23.6 -0.1,-30.5 -9.6,-60.8 -27.6,-85.7 z m 12.2,103.4 C 266.4,328 41.1,324.5 17.1,166.6 c -1.2,-5.7 -1.4,-26.7 -0.5,-31.2 0.3,-6.8 4,-22.8 4.9,-25.1 2.3,-7.8 5.4,-15.2 9,-22.5 C 30,88.8 29.9,89 30,88.9 33.4,82.1 37.7,75.2 42.2,69 47.7,60.9 65.4,43.3 78.3,36 83,33 97.2,25.7 105.9,23.1 149.8,7.3 208.5,19.2 243.7,54.8 273,83 289.3,124.9 285.6,166.1 Z"
       id="path2"
       inkscape:export-filename="/home/user/Pictures/archivesatncbs-200x200.png"
       inkscape:export-xdpi="387.89062"
       inkscape:export-ydpi="387.89062" />
  </g>
  <path
     style="fill:#ffffff;stroke-width:0.0806586"
     d="M 23.794278,46.900399 C 18.42502,46.574404 13.248338,44.345345 9.5059175,40.747885 5.9333244,37.313675 3.744851,33.078714 2.7664596,27.706218 2.6019036,26.802617 2.5828492,26.446874 2.5828492,24.278229 c 0,-2.602706 0.049337,-3.061777 0.5624158,-5.233217 0.6895549,-2.918317 2.261975,-6.121755 4.1594986,-8.474006 0.6517198,-0.8079 2.221622,-2.371928 3.2211794,-3.2091269 2.87546,-2.4083975 6.932886,-4.1806364 10.780742,-4.7089103 1.252353,-0.171936 4.175836,-0.1949789 5.391301,-0.042494 4.259987,0.5344314 8.054083,2.0290213 11.309411,4.4550623 1.103984,0.8227469 3.37315,3.1141349 4.265548,4.3073209 4.038749,5.400033 5.565999,11.905161 4.2586,18.138968 -0.767748,3.660699 -2.251786,6.911404 -4.38613,9.60758 -1.165274,1.472012 -3.309662,3.389882 -4.954778,4.431388 -3.109525,1.96861 -6.628349,3.083109 -10.573309,3.348832 -1.309812,0.08823 -1.382328,0.08825 -2.82305,8.06e-4 z m 1.08889,-6.866777 c 0.582855,-0.333482 1.309437,-1.094964 1.590085,-1.66646 l 0.224733,-0.457635 0.02491,-2.197946 c 0.01894,-1.671268 0.04866,-2.197946 0.124054,-2.197946 0.05453,0 0.515176,-0.05168 1.023655,-0.114845 4.515263,-0.560904 7.274133,-1.745078 9.679555,-4.1547 1.144424,-1.146421 1.8071,-2.076628 2.331973,-3.273424 1.074748,-2.450597 1.070413,-5.237245 -0.01094,-7.030025 -0.583826,-0.96793 -1.621067,-1.881354 -2.136378,-1.881354 -0.894051,0 -2.77681,2.427826 -2.257817,2.911463 0.06683,0.06228 0.298387,0.257441 0.514569,0.433694 1.062054,0.865892 1.751665,2.163029 1.960383,3.687412 0.164436,1.200977 -0.124846,2.537567 -0.75046,3.467403 -0.728936,1.0834 -2.380841,1.853285 -5.242071,2.443114 -1.33713,0.275642 -2.670934,0.438211 -4.104371,0.500255 l -1.197389,0.05183 v -5.841571 -5.841571 l 0.492224,-0.195511 c 1.19235,-0.473601 2.655882,-1.631546 3.426673,-2.711182 0.447429,-0.626709 0.961163,-1.704075 1.128699,-2.367026 0.263576,-1.042993 0.03536,-2.121095 -0.602888,-2.848014 C 30.301166,9.8370641 28.398973,9.1533746 26.667258,9.1555075 26.13542,9.1561608 25.997032,9.1882045 25.63891,9.3936048 25.113839,9.6947586 24.54642,10.337758 24.214377,11.007884 l -0.25878,0.522266 -0.02458,2.401607 -0.02459,2.401606 h -0.273849 c -0.150618,0 -0.919927,-0.05952 -1.709576,-0.132271 -2.05916,-0.189708 -4.989827,-0.18876 -6.028699,0.002 -1.061581,0.194878 -1.876119,0.466739 -2.685916,0.896455 -1.994335,1.058285 -3.5097025,2.944483 -4.148539,5.163736 -0.1623714,0.564062 -0.1854548,0.823633 -0.1863653,2.095659 -0.00113,1.576577 0.072749,2.0129 0.527575,3.115864 1.4984613,3.633807 6.0240413,5.662911 13.5664703,6.082707 l 0.947739,0.05275 v 3.285601 c 0,1.807081 0.0242,3.309799 0.05377,3.339374 0.12056,0.12056 0.495704,0.03784 0.91413,-0.201561 z"
     id="path81"
     transform="scale(6.0599999)" />
  <path
     style="fill:#ffffff;stroke-width:0.0806586"
     d="m 23.149009,30.391224 c -0.897571,-0.08421 -3.041504,-0.460613 -4.003359,-0.702866 -4.412527,-1.111337 -6.82263,-3.132698 -7.454058,-6.251743 -0.188353,-0.930401 -0.131203,-2.430991 0.117364,-3.081624 0.156048,-0.408462 0.21267,-0.471589 0.554447,-0.618145 1.353738,-0.580489 3.480603,-0.715709 7.242872,-0.46048 0.972535,0.06598 2.33975,0.129495 3.038254,0.141153 l 1.270009,0.0212 4.03e-4,5.504947 4.04e-4,5.504948 -0.221811,-0.01356 c -0.121996,-0.0075 -0.366997,-0.02718 -0.544446,-0.04383 z"
     id="path120"
     transform="scale(6.0599999)" />
  <path
     style="fill:#ffffff;stroke-width:0.0806586"
     d="m 26.738316,14.398208 v -1.935153 l 0.342798,0.134269 c 1.1971,0.468884 1.991884,1.395672 1.993427,2.324511 9.99e-4,0.601094 -0.06625,0.757093 -0.399704,0.927209 -0.338359,0.172617 -1.464675,0.484316 -1.750066,0.484316 h -0.186455 z"
     id="path159"
     transform="scale(6.0599999)" />
</svg>
