<svg xmlns:inkscape="http://www.inkscape.org/namespaces/inkscape" xmlns:sodipodi="http://sodipodi.sourceforge.net/DTD/sodipodi-0.dtd" xmlns="http://www.w3.org/2000/svg" xmlns:svg="http://www.w3.org/2000/svg" width="54.888386mm" height="27.188469mm" viewBox="0 0 54.888386 27.188469" id="svg1184" inkscape:version="1.1.1 (c3084ef, 2021-09-22)" sodipodi:docname="NCBS_Logo_Original.svg"><defs id="defs1181"><clipPath clipPathUnits="userSpaceOnUse" id="clipPath866"><path d="M 0,612 H 792 V 0 H 0 Z" id="path864"></path></clipPath></defs><g inkscape:label="Layer 1" inkscape:groupmode="layer" id="layer1" transform="translate(-83.877869,-26.37332)"><g id="g860" transform="matrix(0.35277777,0,0,-0.35277777,51.871221,132.64339)"><g id="g862" clip-path="url(#clipPath866)"><g id="g868" transform="translate(98.7744,267.4668)"><path d="M 0,0 C 2.089,3.695 4.604,9.39 3.276,10.778 H -2.753 C -2.753,10.778 -2.811,3.825 0,0" style="fill:#006936;fill-opacity:1;fill-rule:nonzero;stroke:none" id="path870"></path></g><g id="g872" transform="translate(95.25,278.2656)"><path d="m 0,0 c -0.027,-0.017 -4.388,0 -4.388,0 v -18.085 c 0,0 5.235,-4.116 4.819,-9.292 0.416,0.103 4.052,1.857 4.052,1.857 0,0 1.894,5.738 -0.975,12.357 C 0.249,-7.9 -0.197,-3.401 0,0" style="fill:#348340;fill-opacity:1;fill-rule:nonzero;stroke:none" id="path874"></path></g><g id="g876" transform="translate(90.8691,258.8584)"><path d="m 0,0 v -9.922 l 3.958,1.536 c 0,0 0.904,3.95 -3.958,8.386" style="fill:#006936;fill-opacity:1;fill-rule:nonzero;stroke:none" id="path878"></path></g><g id="g880" transform="translate(120.5361,251.3086)"><path d="m 0,0 v -2.72 h -27.022 c 0,0 6.42,2.955 8.656,4.197 1.903,1.058 4.176,1.276 7.343,1.058 C -7.851,2.326 0,0 0,0" style="fill:#006936;fill-opacity:1;fill-rule:nonzero;stroke:none" id="path882"></path></g><g id="g884" transform="translate(120.5361,257.7861)"><path d="m 0,0 v -5.413 c 0,0 -3.122,1.006 -5.312,1.552 C -4.93,-3.704 -0.74,-1.062 0,0" style="fill:#006936;fill-opacity:1;fill-rule:nonzero;stroke:none" id="path886"></path></g><g id="g888" transform="translate(120.5674,267.0293)"><path d="m 0,0 v -8.109 c 0,0 -2.178,-1.798 -3.026,-2.436 -0.843,-0.635 -3.167,-2.242 -3.689,-2.242 -4.446,1.058 -8.98,0.767 -9.138,0.767 2.672,2.165 5.706,7.391 6.79,10.665 C -7.555,0.17 -3.784,1.192 0,0" style="fill:#348340;fill-opacity:1;fill-rule:nonzero;stroke:none" id="path890"></path></g><g id="g892" transform="translate(120.543,275.2842)"><path d="m 0,0 c 0.011,-0.133 0,-7.183 0,-7.183 0,0 -3.838,1.294 -7.318,-0.281 C -5.988,-4.405 -0.662,0.021 0,0" style="fill:#006936;fill-opacity:1;fill-rule:nonzero;stroke:none" id="path894"></path></g><g id="g896" transform="translate(103.3945,278.2451)"><path d="m 0,0 h 3.59 c 0,0 3.664,-3.189 4.012,-7.547 -0.126,-6.646 -4.149,-13.119 -9.721,-16.959 0.976,3.083 0.147,7.866 -1.692,12.674 C -4.224,-11.099 0.379,-5.233 0,0" style="fill:#006936;fill-opacity:1;fill-rule:nonzero;stroke:none" id="path898"></path></g><g id="g900" transform="translate(108.4609,278.2656)"><path d="m 0,0 c 0.182,-0.017 12.089,0 12.089,0 v -1.289 c 0,0 -6.298,-3.924 -8.922,-9.716 C 4.051,-7.342 3.181,-4.109 0,0" style="fill:#348340;fill-opacity:1;fill-rule:nonzero;stroke:none" id="path902"></path></g><path d="m 230.745,286.437 h -14.756 v 14.801 h 14.756 z" style="fill:#006936;fill-opacity:1;fill-rule:nonzero;stroke:none" id="path904"></path><path d="m 245.625,271.573 h -14.839 v 14.869 h 14.839 z" style="fill:#348340;fill-opacity:1;fill-rule:nonzero;stroke:none" id="path906"></path><g id="g908" transform="translate(129.0215,248.5889)"><path d="m 0,0 h 3.423 v 10.687 c 0,0 0.014,8.44 8.216,8.44 8.205,0 8.335,-8.488 8.335,-8.488 v -10.68 h 3.378 v 10.728 c 0,0 0.194,11.818 -11.713,11.818 C -0.266,22.505 0,10.687 0,10.687 Z" style="fill:#404041;fill-opacity:1;fill-rule:nonzero;stroke:none" id="path910"></path></g><g id="g912" transform="translate(167.1055,271.6465)"><path d="m 0,0 c 0,0 -12.126,0.365 -12.126,-11.729 0,-12.086 12.167,-11.685 12.167,-11.685 h 5.661 v 3.325 H 0.041 c 0,0 -8.73,-0.041 -8.73,8.36 0,8.406 8.73,8.336 8.73,8.336 H 4.862 V 0 H 0.041" style="fill:#404041;fill-opacity:1;fill-rule:nonzero;stroke:none" id="path914"></path></g><g id="g916" transform="translate(187.6768,251.6035)"><path d="M 0,0 H -6.053 V 16.648 H 0 c 0,0 9.379,0.569 9.379,-8.284 C 9.379,-0.477 0,0 0,0 M 0.021,20.006 V 20.04 H -6.046 V 33.763 H -9.444 V -3.403 h 9.465 c 0,0 12.75,-0.758 12.75,11.757 0,12.517 -12.75,11.652 -12.75,11.652" style="fill:#404041;fill-opacity:1;fill-rule:nonzero;stroke:none" id="path918"></path></g><g id="g920" transform="translate(217.5957,271.623)"><path d="m 0,0 v -3.412 l -7.83,0.011 c 0,0 -3.538,0.214 -3.405,-3.122 0,-2.782 1.927,-2.946 2.504,-2.946 0.634,0.062 3.907,0.164 4.32,0.127 0.412,-0.031 7.642,-0.041 7.417,-7.238 -0.225,-7.205 -8.65,-6.988 -9.731,-6.988 -1.078,0 -7.338,0.207 -7.338,0.207 l 0.026,3.513 c 0,0 2.808,-0.112 8.107,-0.242 5.261,-0.043 5.377,2.75 5.456,3.204 0.075,0.45 0.72,3.422 -3.375,4.041 -1.19,0.173 -2.449,0.091 -3.507,-0.052 -0.191,-0.035 -3.539,-0.439 -5.739,1.829 -0.102,0.126 -2.081,2.267 -1.457,5.839 1.092,5.362 6.288,5.225 6.288,5.225 z" style="fill:#404041;fill-opacity:1;fill-rule:nonzero;stroke:none" id="path922"></path></g></g></g><text style="font-variant:normal;font-weight:normal;font-stretch:normal;font-size:3.07516px;font-family:Roboto;-inkscape-font-specification:Roboto-Regular;writing-mode:lr-tb;fill:#404041;fill-opacity:1;fill-rule:nonzero;stroke:none;stroke-width:0.352778" id="text926" x="83.660835" y="50.094105"><tspan x="83.660835 85.88726 87.612427 88.710258 89.519028 91.299545 93.080063 94.805229 95.613998 96.412003 98.39241 100.053 101.83352 102.93135 103.99105 105.65164 106.44934 107.5441 109.32462 110.41322 111.21092 113.20978 114.01855 115.79906 116.60783 118.38835 120.16888 120.97765 122.64438 124.36955 125.17831 125.97601 127.92874 129.59549 130.40425 132.06483 133.84537 135.5121 137.17268" y="50.094105" sodipodi:role="line" id="tspan924" style="stroke-width:0.352778">National Centre for Biological Sciences</tspan></text><text style="font-variant:normal;font-weight:normal;font-stretch:normal;font-size:3.01925px;font-family:Roboto;-inkscape-font-specification:Roboto-Regular;writing-mode:lr-tb;fill:#404041;fill-opacity:1;fill-rule:nonzero;stroke:none;stroke-width:0.352778" id="text930" x="83.877869" y="53.516087"><tspan x="83.877869 85.555061 87.245842 88.320694 90.011475 90.791946 91.67659 93.421715 95.030975 96.105827 96.896866 97.971718 99.716843 100.79169 102.41907 103.19955 104.94467 106.0165 106.79849 108.55479 110.29991 112.04504 113.79017 115.48094 118.14996 119.77734 121.52246 122.59731 124.28809 125.07913 125.85961 127.89156 129.51895 131.1282 132.75558 134.44637 135.48317 137.11658" y="53.516087" sodipodi:role="line" id="tspan928" style="stroke-width:0.352778">Tata Institute of Fundamental Research</tspan></text></g></svg>