<?xml version="1.0" encoding="UTF-8" standalone="no"?>
<svg
   version="1.1"
   viewBox="0 0 909 303"
   width="150"
   height="50"
   id="archives_logo"
   sodipodi:docname="logomark_archives_ncbs.svg"
   inkscape:version="1.1.2 (0a00cf5339, 2022-02-04)"
   xmlns:inkscape="http://www.inkscape.org/namespaces/inkscape"
   xmlns:sodipodi="http://sodipodi.sourceforge.net/DTD/sodipodi-0.dtd"
   xmlns="http://www.w3.org/2000/svg"
   xmlns:svg="http://www.w3.org/2000/svg">
  <defs
     id="defs11" />
  <sodipodi:namedview
     id="namedview9"
     pagecolor="#ffffff"
     bordercolor="#666666"
     borderopacity="1.0"
     inkscape:pageshadow="2"
     inkscape:pageopacity="0.0"
     inkscape:pagecheckerboard="0"
     showgrid="false"
     inkscape:zoom="8.1266667"
     inkscape:cx="74.938474"
     inkscape:cy="24.979491"
     inkscape:window-width="1890"
     inkscape:window-height="1051"
     inkscape:window-x="30"
     inkscape:window-y="0"
     inkscape:window-maximized="1"
     inkscape:current-layer="archives_logo" />
  <g
     style="fill:#824141"
     id="g6"
     transform="matrix(1.0746494,0,0,1.0746494,-0.07412886,-11.308197)">
    <path
       d="m 231.6,105.4 c -5.3,-3.3 -19.3,14.7 -15.2,17.3 14.7,9.2 20,31.7 10.1,46.5 -5.3,8 -22,12.6 -32.6,14.6 -10.1,2 -20.7,3 -31.4,3 0,-23.7 0,-47.5 0,-71.2 13.1,-4.7 24.1,-14.3 29.3,-28.1 8.3,-21.8 -12.7,-30.4 -30.9,-30.4 -6.4,0 -14.6,10.8 -14.6,16.7 0,9.1 0,18.2 0,27.2 -6,-0.4 -12,-1.1 -17.7,-1.5 -14.4,-0.9 -30.3,-1.8 -43.8,4 -15.3,6.5 -27.4,21.7 -29.7,38.1 -2.3,15.9 2.4,31.9 14.9,42.5 11.7,10 27.6,14.7 42.5,17.4 10.9,2 22.3,3.1 33.8,3.3 0,6 0,32.2 0,39.4 0,4.3 8.2,-2.2 9,-2.9 3.3,-3.1 7.3,-7.7 7.3,-12.4 0,-8.2 0,-16.3 0,-24.5 10.9,-0.8 21.6,-2.6 31.7,-5.6 19,-5.7 36,-17.8 45.8,-35.2 10.4,-18.5 11.5,-45.7 -8.5,-58.2 z M 177.5,91.2 c 0.1,2.3 -0.5,5.2 -0.5,5.5 -1.9,1.4 -4.7,2.2 -6.8,2.8 -2.5,0.7 -5,1.2 -7.6,1.5 0,-7 0,-23.2 0,-24.3 2.9,0.8 5.7,2 8.4,4 3.4,2.6 6.3,6 6.5,10.5 z m -59.8,90.7 C 104,178.6 89.8,173 80.4,162.2 c -5,-5.7 -7.9,-12.4 -9.1,-19.8 -0.6,-3.8 -0.7,-7.7 -0.3,-11.5 0.3,-2.5 0.7,-5.6 2.4,-8.9 0,0 0,0 0,0 2.5,-1.4 5.3,-2.3 8.1,-3 6.4,-1.6 13.1,-1.8 19.7,-1.8 14.2,0.1 28.3,2.1 42.5,1.9 0.9,0 1.7,-0.1 2.6,-0.1 0,22.4 0,44.9 0,67.3 -9.7,-0.7 -19.4,-2.2 -28.6,-4.4 z M 273.4,62.7 C 256,38.5 231.3,20.2 203.2,10.1 174.2,-0.3 141.8,-1.3 112.2,7.3 82.7,15.9 56.1,33.2 36.6,56.8 16.2,81.5 3.8,111.8 1.4,143.7 c -2.3,30.5 5.2,61.6 21.2,87.7 15.3,25 38.5,45.4 65.5,57.3 28.4,12.5 60.5,16 90.9,9.7 30.3,-6.3 58.1,-22.1 79.4,-44.3 21.5,-22.4 36.1,-51.5 40.8,-82.1 1.2,-7.8 1.8,-15.7 1.8,-23.6 -0.1,-30.5 -9.6,-60.8 -27.6,-85.7 z m 12.2,103.4 C 266.4,328 41.1,324.5 17.1,166.6 c -1.2,-5.7 -1.4,-26.7 -0.5,-31.2 0.3,-6.8 4,-22.8 4.9,-25.1 2.3,-7.8 5.4,-15.2 9,-22.5 C 30,88.8 29.9,89 30,88.9 33.4,82.1 37.7,75.2 42.2,69 47.7,60.9 65.4,43.3 78.3,36 83,33 97.2,25.7 105.9,23.1 149.8,7.3 208.5,19.2 243.7,54.8 273,83 289.3,124.9 285.6,166.1 Z"
       id="path2" />
    <path
       d="m 728.9,225.7 12.8,-2.6 c 2,7.5 6.3,12.3 16.4,12.3 7.5,0 11.5,-2.6 11.5,-7.9 0,-4.9 -3.4,-7.3 -15.7,-9.5 -16.5,-3.3 -22.4,-8.9 -22.4,-19.2 0,-11.2 8.2,-18.4 24.7,-18.4 17.1,0 22.9,7 25.4,18 l -12.8,2.8 c -1.7,-7.7 -5.4,-10.6 -12.8,-10.6 -7.3,0 -11,2.8 -11,7.4 0,4.4 2.6,7.4 14.4,9.5 18.4,3.4 23.9,9.7 23.9,19.4 0,11.5 -7.7,18.9 -25.5,18.9 -20,0 -26.6,-8.2 -28.9,-20.1 z m -54.2,-26.2 h 0.3 c 2.9,-12.6 10.1,-19.2 22.2,-19.2 16,0 24.3,12.3 24.3,32.4 0,20.6 -8.7,33.1 -24.5,33.1 -12.4,0 -19.3,-6.7 -22.1,-19.4 h -0.3 v 17.7 H 660.3 V 163 h 14.3 v 36.5 z m 32.7,13.2 c 0,-12.4 -5,-19.6 -16,-19.6 -10.3,0 -16.7,6.9 -16.7,19.2 v 1.1 c 0,11.9 6.3,19.6 16.7,19.6 10.7,0 16,-7.6 16,-20.3 z m -84.6,-19.8 c -10.2,0 -16.5,6.5 -16.5,20.1 0,12.6 5.8,20.2 16.9,20.2 10.1,0 13.5,-6.2 15.3,-13.8 l 13.1,3.2 c -2.5,14.4 -11.2,23.2 -28.3,23.2 -19.6,0 -31.6,-11.4 -31.6,-32.3 0,-20.9 12.3,-33.2 31.4,-33.2 17.9,0 25.9,8.5 28.4,23.3 l -13.4,2.5 c -1.8,-7.9 -5.5,-13.2 -15.3,-13.2 z m -83.6,51.2 h -14.3 v -62.2 h 14.3 V 199 h 0.1 c 2.8,-13.2 10.7,-18.7 21.2,-18.7 14.9,0 20.6,9.8 20.6,23.3 v 40.5 h -14.3 v -36.8 c 0,-7.5 -3.3,-14.2 -13,-14.2 -9.1,0 -14.7,5.3 -14.7,14.2 v 36.8 z m -83.3,-50.2 h -8.5 v -12 h 8.5 V 165.4 H 470 v 16.5 h 18.4 v 12 H 470 v 28.8 c 0,6.1 2.4,9.1 8.6,9.1 3.2,0 6.1,-0.8 8.9,-1.5 l 1.7,13.1 c -4.5,1.5 -7.8,2.2 -13.9,2.2 -13.6,0 -19.4,-9 -19.4,-20.6 z m -55.4,-13.6 c 12.4,-0.1 19.4,6.6 22.2,19.4 h 0.1 v -17.9 h 14.3 V 244 h -14.3 v -17.6 h -0.3 c -2.8,12.6 -10.1,19.3 -22.1,19.3 -16.1,0 -24.5,-12.4 -24.5,-32.5 0.1,-20.6 9,-33 24.6,-32.9 z m 22.3,33.3 v -1.1 c 0,-11.9 -6.3,-19.6 -16.5,-19.6 -10.8,0 -16.1,7.5 -16.1,20.2 0,12.4 5,19.6 16.1,19.6 10.2,0.1 16.5,-6.8 16.5,-19.1 z m 370.1,-93.7 12.8,-2.6 c 2,7.5 6.3,12.3 16.4,12.3 7.5,0 11.5,-2.6 11.5,-7.9 0,-4.9 -3.4,-7.3 -15.7,-9.5 -16.5,-3.3 -22.4,-8.9 -22.4,-19.2 0,-11.2 8.2,-18.4 24.7,-18.4 17.1,0 22.9,7 25.4,18 l -12.8,2.8 c -1.7,-7.7 -5.4,-10.6 -12.8,-10.6 -7.3,0 -11,2.8 -11,7.4 0,4.4 2.6,7.4 14.4,9.5 18.4,3.4 23.9,9.7 23.9,19.4 0,11.5 -7.7,18.9 -25.5,18.9 -20,0 -26.6,-8.2 -28.9,-20.1 z M 722.7,108 c 0,-21 12.4,-33.5 31.7,-33.5 18.9,0 28.4,11.9 28.4,29 0,2.5 0,5 -0.3,8.3 H 737 c 1.3,10.5 7.4,15.6 17.6,15.6 9.9,0 13.6,-4.9 15.5,-11.2 l 12.4,3.6 c -3.2,11.9 -11.6,20.1 -28,20.1 -19.1,0 -31.8,-11.4 -31.8,-31.9 z m 14.4,-6.7 h 32.5 c -0.8,-9.7 -5.8,-14.7 -15.6,-14.7 -9.4,0 -15.3,4.6 -16.9,14.7 z m -56.5,37 L 656,76.1 h 15.5 l 8.5,24.1 c 2.9,8.3 6.1,17.2 8.7,25.1 h 0.3 c 2.8,-7.9 5.8,-16.8 8.7,-25.1 l 8.6,-24.1 h 14.9 l -24.3,62.2 z M 632.7,67.8 V 57.2 h 15.5 v 10.6 z m 0.7,70.5 V 76.1 h 14.3 v 62.2 z m -56.9,0 H 562.2 V 57.2 h 14.3 v 36 h 0.1 c 2.8,-13.2 10.7,-18.7 21.2,-18.7 14.9,0 20.6,9.8 20.6,23.3 v 40.5 h -14.3 v -36.8 c 0,-7.5 -3.3,-14.2 -13,-14.2 -9.1,0 -14.7,5.3 -14.7,14.2 v 36.8 z M 524.7,87.1 c -10.2,0 -16.5,6.5 -16.5,20.1 0,12.6 5.8,20.2 16.9,20.2 10.1,0 13.5,-6.2 15.3,-13.8 l 13.1,3.2 c -2.5,14.4 -11.2,23.2 -28.3,23.2 -19.6,0 -31.6,-11.4 -31.6,-32.3 0,-20.9 12.3,-33.2 31.4,-33.2 17.9,0 25.9,8.5 28.4,23.3 l -13.4,2.5 c -1.8,-7.9 -5.5,-13.2 -15.3,-13.2 z m -73,51.2 V 76.1 H 466 v 20.4 h 0.3 c 2.8,-16.1 8.3,-20.4 17.7,-20.4 h 3.6 v 16 h -6.1 c -11.1,0 -15.5,3.8 -15.5,14.7 v 31.5 z M 400.5,74.5 c 12.4,-0.1 19.4,6.6 22.2,19.4 h 0.1 V 76.1 h 14.3 v 62.2 h -14.3 v -17.6 h -0.3 c -2.8,12.6 -10.1,19.3 -22.1,19.3 -16.1,0 -24.5,-12.4 -24.5,-32.5 0.1,-20.7 9,-33.1 24.6,-33 z m 22.3,33.4 v -1.1 c 0,-11.9 -6.3,-19.6 -16.5,-19.6 -10.8,0 -16.1,7.5 -16.1,20.2 0,12.4 5,19.6 16.1,19.6 10.2,0.1 16.5,-6.8 16.5,-19.1 z"
       id="path4" />
  </g>
</svg>
